solid zone0
 facet normal 0 0 -1
  outer loop
   vertex -0.0345531 -0.0361397 -0.2
   vertex -0.0376536 -0.0328969 -0.2
   vertex -0.0311745 -0.0390916 -0.2
  endloop
 endfacet
 facet normal 0 0 -1
  outer loop
   vertex -0.0345531 0.0361397 -0.2
   vertex -0.0311745 0.0390916 -0.2
   vertex -0.0275448 0.0417287 -0.2
  endloop
 endfacet
 facet normal 0 0 -1
  outer loop
   vertex 0.0311745 -0.0390916 -0.2
   vertex -0.0404509 0.0293893 -0.2
   vertex -0.0275448 0.0417287 -0.2
  endloop
 endfacet
 facet normal 0 0 -1
  outer loop
   vertex -0.0404509 0.0293893 -0.2
   vertex -0.0345531 0.0361397 -0.2
   vertex -0.0275448 0.0417287 -0.2
  endloop
 endfacet
 facet normal 0 0 -1
  outer loop
   vertex -0.0311745 -0.0390916 -0.2
   vertex -0.0376536 -0.0328969 -0.2
   vertex -0.0275448 -0.0417287 -0.2
  endloop
 endfacet
 facet normal 0 0 -1
  outer loop
   vertex 0.0311745 -0.0390916 -0.2
   vertex -0.0275448 0.0417287 -0.2
   vertex -0.0236934 0.0440298 -0.2
  endloop
 endfacet
 facet normal 0 0 -1
  outer loop
   vertex -0.0404509 -0.0293893 -0.2
   vertex -0.0429224 -0.025645 -0.2
   vertex -0.0450484 -0.0216942 -0.2
  endloop
 endfacet
 facet normal 0 0 -1
  outer loop
   vertex -0.0376536 -0.0328969 -0.2
   vertex -0.0404509 -0.0293893 -0.2
   vertex -0.0450484 -0.0216942 -0.2
  endloop
 endfacet
 facet normal 0 0 -1
  outer loop
   vertex -0.0236934 -0.0440298 -0.2
   vertex -0.0275448 -0.0417287 -0.2
   vertex -0.0450484 -0.0216942 -0.2
  endloop
 endfacet
 facet normal 0 0 -1
  outer loop
   vertex -0.0275448 -0.0417287 -0.2
   vertex -0.0376536 -0.0328969 -0.2
   vertex -0.0450484 -0.0216942 -0.2
  endloop
 endfacet
 facet normal -0 0 -1
  outer loop
   vertex 0.0345531 -0.0361397 -0.2
   vertex 0.0311745 -0.0390916 -0.2
   vertex 0.0468117 -0.0175687 -0.2
  endloop
 endfacet
 facet normal -0 0 -1
  outer loop
   vertex 0.0376536 -0.0328969 -0.2
   vertex 0.0345531 -0.0361397 -0.2
   vertex 0.0468117 -0.0175687 -0.2
  endloop
 endfacet
 facet normal -0 0 -1
  outer loop
   vertex 0.0404509 -0.0293893 -0.2
   vertex 0.0376536 -0.0328969 -0.2
   vertex 0.0468117 -0.0175687 -0.2
  endloop
 endfacet
 facet normal -0 0 -1
  outer loop
   vertex 0.0429224 -0.025645 -0.2
   vertex 0.0404509 -0.0293893 -0.2
   vertex 0.0468117 -0.0175687 -0.2
  endloop
 endfacet
 facet normal 0 0 -1
  outer loop
   vertex -0.0236934 -0.0440298 -0.2
   vertex -0.0450484 -0.0216942 -0.2
   vertex -0.0196513 -0.0459764 -0.2
  endloop
 endfacet
 facet normal -0 0 -1
  outer loop
   vertex 0.0450484 -0.0216942 -0.2
   vertex 0.0429224 -0.025645 -0.2
   vertex 0.0468117 -0.0175687 -0.2
  endloop
 endfacet
 facet normal 0 0 -1
  outer loop
   vertex -0.0236934 0.0440298 -0.2
   vertex -0.0196513 0.0459764 -0.2
   vertex -0.0154508 0.0475528 -0.2
  endloop
 endfacet
 facet normal 0 0 -1
  outer loop
   vertex -0.0236934 0.0440298 -0.2
   vertex -0.0154508 0.0475528 -0.2
   vertex -0.011126 0.0487464 -0.2
  endloop
 endfacet
 facet normal 0 0 -1
  outer loop
   vertex -0.0450484 -0.0216942 -0.2
   vertex -0.0468117 -0.0175687 -0.2
   vertex -0.0481981 -0.0133018 -0.2
  endloop
 endfacet
 facet normal 0 0 -1
  outer loop
   vertex -0.0236934 0.0440298 -0.2
   vertex -0.011126 0.0487464 -0.2
   vertex -0.00671166 0.0495475 -0.2
  endloop
 endfacet
 facet normal -0 0 -1
  outer loop
   vertex 0.0468117 -0.0175687 -0.2
   vertex 0.0311745 -0.0390916 -0.2
   vertex 0.0497987 -0.00448197 -0.2
  endloop
 endfacet
 facet normal 0 0 -1
  outer loop
   vertex -0.0154508 -0.0475528 -0.2
   vertex -0.0196513 -0.0459764 -0.2
   vertex -0.00671166 -0.0495475 -0.2
  endloop
 endfacet
 facet normal -0 0 -1
  outer loop
   vertex 0.0481981 -0.0133018 -0.2
   vertex 0.0468117 -0.0175687 -0.2
   vertex 0.0497987 -0.00448197 -0.2
  endloop
 endfacet
 facet normal 0 0 -1
  outer loop
   vertex -0.011126 -0.0487464 -0.2
   vertex -0.0154508 -0.0475528 -0.2
   vertex -0.00671166 -0.0495475 -0.2
  endloop
 endfacet
 facet normal -0 0 -1
  outer loop
   vertex 0.0491965 -0.00892785 -0.2
   vertex 0.0481981 -0.0133018 -0.2
   vertex 0.0497987 -0.00448197 -0.2
  endloop
 endfacet
 facet normal 0 0 -1
  outer loop
   vertex -0.0196513 -0.0459764 -0.2
   vertex -0.0450484 -0.0216942 -0.2
   vertex -0.00671166 -0.0495475 -0.2
  endloop
 endfacet
 facet normal 0 0 -1
  outer loop
   vertex -0.0481981 -0.0133018 -0.2
   vertex -0.0491965 -0.00892785 -0.2
   vertex -0.0497987 -0.00448197 -0.2
  endloop
 endfacet
 facet normal -0 0 -1
  outer loop
   vertex 0.05 -1.22465e-17 -0.2
   vertex 0.0497987 -0.00448197 -0.2
   vertex 0.0497987 0.00448197 -0.2
  endloop
 endfacet
 facet normal -0 0 -1
  outer loop
   vertex 0.0497987 -0.00448197 -0.2
   vertex 0.0311745 -0.0390916 -0.2
   vertex 0.0497987 0.00448197 -0.2
  endloop
 endfacet
 facet normal 0 0 -1
  outer loop
   vertex -0.00224324 0.0499497 -0.2
   vertex 0.00224324 0.0499497 -0.2
   vertex 0.00671166 0.0495475 -0.2
  endloop
 endfacet
 facet normal 0 0 -1
  outer loop
   vertex -0.00671166 0.0495475 -0.2
   vertex -0.00224324 0.0499497 -0.2
   vertex 0.00671166 0.0495475 -0.2
  endloop
 endfacet
 facet normal 0 0 -1
  outer loop
   vertex -0.00224324 -0.0499497 -0.2
   vertex -0.00671166 -0.0495475 -0.2
   vertex 0.00224324 -0.0499497 -0.2
  endloop
 endfacet
 facet normal -0 -0 -1
  outer loop
   vertex 0.0491965 0.00892785 -0.2
   vertex 0.0497987 0.00448197 -0.2
   vertex 0.0481981 0.0133018 -0.2
  endloop
 endfacet
 facet normal 0 0 -1
  outer loop
   vertex 0.00224324 -0.0499497 -0.2
   vertex -0.00671166 -0.0495475 -0.2
   vertex 0.011126 -0.0487464 -0.2
  endloop
 endfacet
 facet normal 0 0 -1
  outer loop
   vertex 0.011126 0.0487464 -0.2
   vertex 0.0154508 0.0475528 -0.2
   vertex 0.0196513 0.0459764 -0.2
  endloop
 endfacet
 facet normal 0 0 -1
  outer loop
   vertex 0.00671166 0.0495475 -0.2
   vertex 0.011126 0.0487464 -0.2
   vertex 0.0196513 0.0459764 -0.2
  endloop
 endfacet
 facet normal -0 0 -1
  outer loop
   vertex 0.00671166 -0.0495475 -0.2
   vertex 0.00224324 -0.0499497 -0.2
   vertex 0.011126 -0.0487464 -0.2
  endloop
 endfacet
 facet normal 0 0 -1
  outer loop
   vertex -0.00671166 -0.0495475 -0.2
   vertex -0.0450484 -0.0216942 -0.2
   vertex -0.0481981 0.0133018 -0.2
  endloop
 endfacet
 facet normal 0 0 -1
  outer loop
   vertex -0.0481981 -0.0133018 -0.2
   vertex -0.0497987 -0.00448197 -0.2
   vertex -0.0481981 0.0133018 -0.2
  endloop
 endfacet
 facet normal -0 0 -1
  outer loop
   vertex 0.011126 -0.0487464 -0.2
   vertex -0.00671166 -0.0495475 -0.2
   vertex -0.0481981 0.0133018 -0.2
  endloop
 endfacet
 facet normal 0 0 -1
  outer loop
   vertex -0.0497987 0.00448197 -0.2
   vertex -0.0491965 0.00892785 -0.2
   vertex -0.0481981 0.0133018 -0.2
  endloop
 endfacet
 facet normal 0 0 -1
  outer loop
   vertex -0.05 6.12323e-18 -0.2
   vertex -0.0497987 0.00448197 -0.2
   vertex -0.0481981 0.0133018 -0.2
  endloop
 endfacet
 facet normal 0 0 -1
  outer loop
   vertex -0.0497987 -0.00448197 -0.2
   vertex -0.05 6.12323e-18 -0.2
   vertex -0.0481981 0.0133018 -0.2
  endloop
 endfacet
 facet normal 0 0 -1
  outer loop
   vertex -0.0450484 -0.0216942 -0.2
   vertex -0.0481981 -0.0133018 -0.2
   vertex -0.0481981 0.0133018 -0.2
  endloop
 endfacet
 facet normal -0 -0 -1
  outer loop
   vertex 0.0468117 0.0175687 -0.2
   vertex 0.0481981 0.0133018 -0.2
   vertex 0.0429224 0.025645 -0.2
  endloop
 endfacet
 facet normal -0 -0 -1
  outer loop
   vertex 0.0450484 0.0216942 -0.2
   vertex 0.0468117 0.0175687 -0.2
   vertex 0.0429224 0.025645 -0.2
  endloop
 endfacet
 facet normal -0 -0 -1
  outer loop
   vertex 0.0481981 0.0133018 -0.2
   vertex 0.0497987 0.00448197 -0.2
   vertex 0.0429224 0.025645 -0.2
  endloop
 endfacet
 facet normal 0 0 -1
  outer loop
   vertex 0.011126 -0.0487464 -0.2
   vertex -0.0481981 0.0133018 -0.2
   vertex 0.0196513 -0.0459764 -0.2
  endloop
 endfacet
 facet normal 0 0 -1
  outer loop
   vertex -0.0481981 0.0133018 -0.2
   vertex -0.0468117 0.0175687 -0.2
   vertex 0.0196513 -0.0459764 -0.2
  endloop
 endfacet
 facet normal -0 0 -1
  outer loop
   vertex 0.0154508 -0.0475528 -0.2
   vertex 0.011126 -0.0487464 -0.2
   vertex 0.0196513 -0.0459764 -0.2
  endloop
 endfacet
 facet normal 0 0 -1
  outer loop
   vertex 0.0196513 -0.0459764 -0.2
   vertex -0.0468117 0.0175687 -0.2
   vertex -0.0450484 0.0216942 -0.2
  endloop
 endfacet
 facet normal 0 0 -1
  outer loop
   vertex 0.0196513 -0.0459764 -0.2
   vertex -0.0450484 0.0216942 -0.2
   vertex 0.0236934 -0.0440298 -0.2
  endloop
 endfacet
 facet normal -0 -0 -1
  outer loop
   vertex 0.0404509 0.0293893 -0.2
   vertex 0.0429224 0.025645 -0.2
   vertex 0.0376536 0.0328969 -0.2
  endloop
 endfacet
 facet normal -0 -0 -1
  outer loop
   vertex 0.0429224 0.025645 -0.2
   vertex 0.0497987 0.00448197 -0.2
   vertex 0.0345531 0.0361397 -0.2
  endloop
 endfacet
 facet normal -0 -0 -1
  outer loop
   vertex 0.0376536 0.0328969 -0.2
   vertex 0.0429224 0.025645 -0.2
   vertex 0.0345531 0.0361397 -0.2
  endloop
 endfacet
 facet normal 0 0 -1
  outer loop
   vertex 0.0275448 0.0417287 -0.2
   vertex 0.0311745 0.0390916 -0.2
   vertex 0.0345531 0.0361397 -0.2
  endloop
 endfacet
 facet normal 0 0 -1
  outer loop
   vertex 0.0236934 -0.0440298 -0.2
   vertex -0.0450484 0.0216942 -0.2
   vertex -0.0404509 0.0293893 -0.2
  endloop
 endfacet
 facet normal 0 0 -1
  outer loop
   vertex 0.0236934 0.0440298 -0.2
   vertex 0.0275448 0.0417287 -0.2
   vertex 0.0345531 0.0361397 -0.2
  endloop
 endfacet
 facet normal 0 0 -1
  outer loop
   vertex -0.0450484 0.0216942 -0.2
   vertex -0.0429224 0.025645 -0.2
   vertex -0.0404509 0.0293893 -0.2
  endloop
 endfacet
 facet normal 0 0 -1
  outer loop
   vertex 0.0196513 0.0459764 -0.2
   vertex 0.0236934 0.0440298 -0.2
   vertex 0.0345531 0.0361397 -0.2
  endloop
 endfacet
 facet normal 0 0 -1
  outer loop
   vertex 0.0311745 -0.0390916 -0.2
   vertex -0.0236934 0.0440298 -0.2
   vertex 0.0345531 0.0361397 -0.2
  endloop
 endfacet
 facet normal 0 0 -1
  outer loop
   vertex -0.0236934 0.0440298 -0.2
   vertex -0.00671166 0.0495475 -0.2
   vertex 0.0345531 0.0361397 -0.2
  endloop
 endfacet
 facet normal 0 0 -1
  outer loop
   vertex -0.00671166 0.0495475 -0.2
   vertex 0.00671166 0.0495475 -0.2
   vertex 0.0345531 0.0361397 -0.2
  endloop
 endfacet
 facet normal -0 0 -1
  outer loop
   vertex 0.0497987 0.00448197 -0.2
   vertex 0.0311745 -0.0390916 -0.2
   vertex 0.0345531 0.0361397 -0.2
  endloop
 endfacet
 facet normal 0 0 -1
  outer loop
   vertex 0.0236934 -0.0440298 -0.2
   vertex -0.0404509 0.0293893 -0.2
   vertex 0.0311745 -0.0390916 -0.2
  endloop
 endfacet
 facet normal 0 0 -1
  outer loop
   vertex 0.00671166 0.0495475 -0.2
   vertex 0.0196513 0.0459764 -0.2
   vertex 0.0345531 0.0361397 -0.2
  endloop
 endfacet
 facet normal -0 0 -1
  outer loop
   vertex 0.0275448 -0.0417287 -0.2
   vertex 0.0236934 -0.0440298 -0.2
   vertex 0.0311745 -0.0390916 -0.2
  endloop
 endfacet
 facet normal 0 0 -1
  outer loop
   vertex -0.0404509 0.0293893 -0.2
   vertex -0.0376536 0.0328969 -0.2
   vertex -0.0345531 0.0361397 -0.2
  endloop
 endfacet
endsolid zone0
