solid zone0
 facet normal 0.999746 6.43033e-07 0.0225528
  outer loop
   vertex 0.0499497 -0.9 1.80224
   vertex 0.05 -0.497494 1.8
   vertex 0.0499491 -0.497499 1.80225
  endloop
 endfacet
 facet normal 0.999748 0 0.0224375
  outer loop
   vertex 0.0499497 -0.9 1.80224
   vertex 0.05 -0.9 1.8
   vertex 0.05 -0.497494 1.8
  endloop
 endfacet
 facet normal 0.997735 -6.20841e-07 0.0672719
  outer loop
   vertex 0.0497987 -0.9 1.80448
   vertex 0.0499497 -0.9 1.80224
   vertex 0.0499491 -0.497499 1.80225
  endloop
 endfacet
 facet normal 0.997715 1.01127e-06 0.0675655
  outer loop
   vertex 0.0497987 -0.9 1.80448
   vertex 0.0499491 -0.497499 1.80225
   vertex 0.0497971 -0.497514 1.8045
  endloop
 endfacet
 facet normal 0.993713 -1.02486e-06 0.111962
  outer loop
   vertex 0.0495475 -0.9 1.80671
   vertex 0.0497987 -0.9 1.80448
   vertex 0.0497971 -0.497514 1.8045
  endloop
 endfacet
 facet normal 0.991499 0.000100096 0.130116
  outer loop
   vertex 0.0495475 -0.9 1.80671
   vertex 0.0497971 -0.497514 1.8045
   vertex 0.0492721 -0.497566 1.8085
  endloop
 endfacet
 facet normal 0.987688 -1.95213e-05 0.156434
  outer loop
   vertex 0.0491965 -0.9 1.80893
   vertex 0.0495475 -0.9 1.80671
   vertex 0.0492721 -0.497566 1.8085
  endloop
 endfacet
 facet normal 0.979676 2.88308e-05 0.200586
  outer loop
   vertex 0.0487464 -0.9 1.81113
   vertex 0.0491965 -0.9 1.80893
   vertex 0.0492721 -0.497566 1.8085
  endloop
 endfacet
 facet normal 0.977765 9.08082e-05 0.209704
  outer loop
   vertex 0.0487464 -0.9 1.81113
   vertex 0.0492721 -0.497566 1.8085
   vertex 0.0484246 -0.49765 1.81245
  endloop
 endfacet
 facet normal 0.969689 -2.98066e-05 0.244342
  outer loop
   vertex 0.0481981 -0.9 1.8133
   vertex 0.0487464 -0.9 1.81113
   vertex 0.0484246 -0.49765 1.81245
  endloop
 endfacet
 facet normal 0.957748 6.82928e-05 0.287609
  outer loop
   vertex 0.0475528 -0.9 1.81545
   vertex 0.0481981 -0.9 1.8133
   vertex 0.0484246 -0.49765 1.81245
  endloop
 endfacet
 facet normal 0.957633 7.13902e-05 0.287991
  outer loop
   vertex 0.0475528 -0.9 1.81545
   vertex 0.0484246 -0.49765 1.81245
   vertex 0.0472606 -0.497761 1.81632
  endloop
 endfacet
 facet normal 0.943885 -3.02562e-05 0.330275
  outer loop
   vertex 0.0468117 -0.9 1.81757
   vertex 0.0475528 -0.9 1.81545
   vertex 0.0472606 -0.497761 1.81632
  endloop
 endfacet
 facet normal 0.931264 8.93673e-05 0.364346
  outer loop
   vertex 0.0468117 -0.9 1.81757
   vertex 0.0472606 -0.497761 1.81632
   vertex 0.0457897 -0.497899 1.82008
  endloop
 endfacet
 facet normal 0.928115 3.16805e-05 0.372293
  outer loop
   vertex 0.0459764 -0.9 1.81965
   vertex 0.0468117 -0.9 1.81757
   vertex 0.0457897 -0.497899 1.82008
  endloop
 endfacet
 facet normal 0.91048 -2.07612e-05 0.413553
  outer loop
   vertex 0.0450484 -0.9 1.82169
   vertex 0.0459764 -0.9 1.81965
   vertex 0.0457897 -0.497899 1.82008
  endloop
 endfacet
 facet normal 0.898872 9.94718e-05 0.438211
  outer loop
   vertex 0.0450484 -0.9 1.82169
   vertex 0.0457897 -0.497899 1.82008
   vertex 0.0440247 -0.498058 1.8237
  endloop
 endfacet
 facet normal 0.891009 6.02424e-07 0.453986
  outer loop
   vertex 0.0440298 -0.9 1.82369
   vertex 0.0450484 -0.9 1.82169
   vertex 0.0440247 -0.498058 1.8237
  endloop
 endfacet
 facet normal 0.869742 -6.04847e-07 0.493507
  outer loop
   vertex 0.0429224 -0.9 1.82565
   vertex 0.0440298 -0.9 1.82369
   vertex 0.0440247 -0.498058 1.8237
  endloop
 endfacet
 facet normal 0.858476 0.000123761 0.512853
  outer loop
   vertex 0.0429224 -0.9 1.82565
   vertex 0.0440247 -0.498058 1.8237
   vertex 0.0417384 -0.498255 1.82753
  endloop
 endfacet
 facet normal 0.846711 -9.96375e-07 0.532053
  outer loop
   vertex 0.0417287 -0.9 1.82754
   vertex 0.0429224 -0.9 1.82565
   vertex 0.0417384 -0.498255 1.82753
  endloop
 endfacet
 facet normal 0.822012 9.79001e-07 0.56947
  outer loop
   vertex 0.0404509 -0.9 1.82939
   vertex 0.0417287 -0.9 1.82754
   vertex 0.0417384 -0.498255 1.82753
  endloop
 endfacet
 facet normal 0.809533 0.000122448 0.587075
  outer loop
   vertex 0.0404509 -0.9 1.82939
   vertex 0.0417384 -0.498255 1.82753
   vertex 0.0391348 -0.498466 1.83112
  endloop
 endfacet
 facet normal 0.795613 -3.91964e-06 0.605805
  outer loop
   vertex 0.0390916 -0.9 1.83117
   vertex 0.0404509 -0.9 1.82939
   vertex 0.0391348 -0.498466 1.83112
  endloop
 endfacet
 facet normal 0.754492 0.000120771 0.656309
  outer loop
   vertex 0.0376536 -0.9 1.8329
   vertex 0.0391348 -0.498466 1.83112
   vertex 0.036242 -0.498685 1.83445
  endloop
 endfacet
 facet normal 0.76766 3.82229e-06 0.640857
  outer loop
   vertex 0.0376536 -0.9 1.8329
   vertex 0.0390916 -0.9 1.83117
   vertex 0.0391348 -0.498466 1.83112
  endloop
 endfacet
 facet normal 0.738106 -7.79551e-06 0.674685
  outer loop
   vertex 0.0361397 -0.9 1.83455
   vertex 0.0376536 -0.9 1.8329
   vertex 0.036242 -0.498685 1.83445
  endloop
 endfacet
 facet normal 0.693985 0.000118453 0.71999
  outer loop
   vertex 0.0345531 -0.9 1.83614
   vertex 0.036242 -0.498685 1.83445
   vertex 0.0330901 -0.498904 1.83748
  endloop
 endfacet
 facet normal 0.70712 8.75133e-06 0.707094
  outer loop
   vertex 0.0345531 -0.9 1.83614
   vertex 0.0361397 -0.9 1.83455
   vertex 0.036242 -0.498685 1.83445
  endloop
 endfacet
 facet normal 0.674662 -1.28187e-05 0.738127
  outer loop
   vertex 0.0328969 -0.9 1.83765
   vertex 0.0345531 -0.9 1.83614
   vertex 0.0330901 -0.498904 1.83748
  endloop
 endfacet
 facet normal 0.628599 0.000114955 0.77773
  outer loop
   vertex 0.0311745 -0.9 1.83909
   vertex 0.0330901 -0.498904 1.83748
   vertex 0.0297115 -0.499116 1.84021
  endloop
 endfacet
 facet normal 0.640873 1.59296e-05 0.767647
  outer loop
   vertex 0.0311745 -0.9 1.83909
   vertex 0.0328969 -0.9 1.83765
   vertex 0.0330901 -0.498904 1.83748
  endloop
 endfacet
 facet normal 0.605784 -1.84551e-05 0.795629
  outer loop
   vertex 0.0293893 -0.9 1.84045
   vertex 0.0311745 -0.9 1.83909
   vertex 0.0297115 -0.499116 1.84021
  endloop
 endfacet
 facet normal 0.559035 0.000109744 0.829144
  outer loop
   vertex 0.0275448 -0.9 1.84173
   vertex 0.0297115 -0.499116 1.84021
   vertex 0.02614 -0.499316 1.84262
  endloop
 endfacet
 facet normal 0.56949 2.62513e-05 0.821998
  outer loop
   vertex 0.0275448 -0.9 1.84173
   vertex 0.0293893 -0.9 1.84045
   vertex 0.0297115 -0.499116 1.84021
  endloop
 endfacet
 facet normal 0.532055 -2.4055e-05 0.84671
  outer loop
   vertex 0.025645 -0.9 1.84292
   vertex 0.0275448 -0.9 1.84173
   vertex 0.02614 -0.499316 1.84262
  endloop
 endfacet
 facet normal 0.485907 0.000102116 0.87401
  outer loop
   vertex 0.0236934 -0.9 1.84403
   vertex 0.02614 -0.499316 1.84262
   vertex 0.0224073 -0.499498 1.8447
  endloop
 endfacet
 facet normal 0.493496 4.08139e-05 0.869748
  outer loop
   vertex 0.0236934 -0.9 1.84403
   vertex 0.025645 -0.9 1.84292
   vertex 0.02614 -0.499316 1.84262
  endloop
 endfacet
 facet normal 0.453994 -2.87181e-05 0.891005
  outer loop
   vertex 0.0216942 -0.9 1.84505
   vertex 0.0236934 -0.9 1.84403
   vertex 0.0224073 -0.499498 1.8447
  endloop
 endfacet
 facet normal 0.413571 6.02964e-05 0.910472
  outer loop
   vertex 0.0196513 -0.9 1.84598
   vertex 0.0216942 -0.9 1.84505
   vertex 0.0224073 -0.499498 1.8447
  endloop
 endfacet
 facet normal 0.409907 9.07959e-05 0.912128
  outer loop
   vertex 0.0196513 -0.9 1.84598
   vertex 0.0224073 -0.499498 1.8447
   vertex 0.0185478 -0.499656 1.84643
  endloop
 endfacet
 facet normal 0.372283 -3.11251e-05 0.928119
  outer loop
   vertex 0.0175687 -0.9 1.84681
   vertex 0.0196513 -0.9 1.84598
   vertex 0.0185478 -0.499656 1.84643
  endloop
 endfacet
 facet normal 0.331659 8.26945e-05 0.943399
  outer loop
   vertex 0.0175687 -0.9 1.84681
   vertex 0.0185478 -0.499656 1.84643
   vertex 0.0145887 -0.499787 1.84782
  endloop
 endfacet
 facet normal 0.330282 7.12175e-05 0.943882
  outer loop
   vertex 0.0154508 -0.9 1.84755
   vertex 0.0175687 -0.9 1.84681
   vertex 0.0145887 -0.499787 1.84782
  endloop
 endfacet
 facet normal 0.287578 -3.01889e-05 0.957757
  outer loop
   vertex 0.0133018 -0.9 1.8482
   vertex 0.0154508 -0.9 1.84755
   vertex 0.0145887 -0.499787 1.84782
  endloop
 endfacet
 facet normal 0.251598 9.4911e-05 0.967832
  outer loop
   vertex 0.0133018 -0.9 1.8482
   vertex 0.0145887 -0.499787 1.84782
   vertex 0.010549 -0.499889 1.84887
  endloop
 endfacet
 facet normal 0.244326 4.17323e-05 0.969693
  outer loop
   vertex 0.011126 -0.9 1.84875
   vertex 0.0133018 -0.9 1.8482
   vertex 0.010549 -0.499889 1.84887
  endloop
 endfacet
 facet normal 0.200637 -2.44706e-05 0.979666
  outer loop
   vertex 0.00892785 -0.9 1.8492
   vertex 0.011126 -0.9 1.84875
   vertex 0.010549 -0.499889 1.84887
  endloop
 endfacet
 facet normal 0.169839 0.00010499 0.985472
  outer loop
   vertex 0.00892785 -0.9 1.8492
   vertex 0.010549 -0.499889 1.84887
   vertex 0.00641965 -0.499959 1.84959
  endloop
 endfacet
 facet normal 0.15641 1.86313e-05 0.987692
  outer loop
   vertex 0.00671166 -0.9 1.84955
   vertex 0.00892785 -0.9 1.8492
   vertex 0.00641965 -0.499959 1.84959
  endloop
 endfacet
 facet normal 0.111962 -1.43959e-05 0.993713
  outer loop
   vertex 0.00448197 -0.9 1.8498
   vertex 0.00671166 -0.9 1.84955
   vertex 0.00641965 -0.499959 1.84959
  endloop
 endfacet
 facet normal 0.0857407 0.000113996 0.996317
  outer loop
   vertex 0.00448197 -0.9 1.8498
   vertex 0.00641965 -0.499959 1.84959
   vertex 0.00214726 -0.499995 1.84995
  endloop
 endfacet
 facet normal 0.0672967 5.79506e-06 0.997733
  outer loop
   vertex 0.00224324 -0.9 1.84995
   vertex 0.00448197 -0.9 1.8498
   vertex 0.00214726 -0.499995 1.84995
  endloop
 endfacet
 facet normal 0.0224141 -4.99512e-06 0.999749
  outer loop
   vertex 3.06162e-18 -0.9 1.85
   vertex 0.00224324 -0.9 1.84995
   vertex 0.00214726 -0.499995 1.84995
  endloop
 endfacet
 facet normal 0.00256942 0.000101562 0.999997
  outer loop
   vertex 3.06162e-18 -0.9 1.85
   vertex 0.00214726 -0.499995 1.84995
   vertex -0.00189094 -0.499996 1.84996
  endloop
 endfacet
 facet normal -0.0224141 -1.65655e-05 0.999749
  outer loop
   vertex -0.00224324 -0.9 1.84995
   vertex 3.06162e-18 -0.9 1.85
   vertex -0.00189094 -0.499996 1.84996
  endloop
 endfacet
 facet normal -0.0672967 2.30374e-05 0.997733
  outer loop
   vertex -0.00448197 -0.9 1.8498
   vertex -0.00224324 -0.9 1.84995
   vertex -0.00189094 -0.499996 1.84996
  endloop
 endfacet
 facet normal -0.0798143 0.000104503 0.99681
  outer loop
   vertex -0.00448197 -0.9 1.8498
   vertex -0.00189094 -0.499996 1.84996
   vertex -0.00608341 -0.499963 1.84963
  endloop
 endfacet
 facet normal -0.111962 -2.55092e-05 0.993713
  outer loop
   vertex -0.00671166 -0.9 1.84955
   vertex -0.00448197 -0.9 1.8498
   vertex -0.00608341 -0.499963 1.84963
  endloop
 endfacet
 facet normal -0.15641 4.55157e-05 0.987692
  outer loop
   vertex -0.00892785 -0.9 1.8492
   vertex -0.00671166 -0.9 1.84955
   vertex -0.00608341 -0.499963 1.84963
  endloop
 endfacet
 facet normal -0.164091 0.000101476 0.986445
  outer loop
   vertex -0.00892785 -0.9 1.8492
   vertex -0.00608341 -0.499963 1.84963
   vertex -0.0103117 -0.499894 1.84893
  endloop
 endfacet
 facet normal -0.200637 -2.95282e-05 0.979666
  outer loop
   vertex -0.011126 -0.9 1.84875
   vertex -0.00892785 -0.9 1.8492
   vertex -0.0103117 -0.499894 1.84893
  endloop
 endfacet
 facet normal -0.244326 6.38467e-05 0.969693
  outer loop
   vertex -0.0133018 -0.9 1.8482
   vertex -0.011126 -0.9 1.84875
   vertex -0.0103117 -0.499894 1.84893
  endloop
 endfacet
 facet normal -0.248033 9.32653e-05 0.968751
  outer loop
   vertex -0.0133018 -0.9 1.8482
   vertex -0.0103117 -0.499894 1.84893
   vertex -0.0144687 -0.499791 1.84786
  endloop
 endfacet
 facet normal -0.287578 -3.1294e-05 0.957757
  outer loop
   vertex -0.0154508 -0.9 1.84755
   vertex -0.0133018 -0.9 1.8482
   vertex -0.0144687 -0.499791 1.84786
  endloop
 endfacet
 facet normal -0.32992 8.31991e-05 0.944009
  outer loop
   vertex -0.0154508 -0.9 1.84755
   vertex -0.0144687 -0.499791 1.84786
   vertex -0.018492 -0.499658 1.84645
  endloop
 endfacet
 facet normal -0.330282 8.01006e-05 0.943882
  outer loop
   vertex -0.0175687 -0.9 1.84681
   vertex -0.0154508 -0.9 1.84755
   vertex -0.018492 -0.499658 1.84645
  endloop
 endfacet
 facet normal -0.408757 9.32732e-05 0.912643
  outer loop
   vertex -0.0196513 -0.9 1.84598
   vertex -0.018492 -0.499658 1.84645
   vertex -0.0223483 -0.4995 1.84473
  endloop
 endfacet
 facet normal -0.372283 -3.08256e-05 0.928119
  outer loop
   vertex -0.0196513 -0.9 1.84598
   vertex -0.0175687 -0.9 1.84681
   vertex -0.018492 -0.499658 1.84645
  endloop
 endfacet
 facet normal -0.413571 5.40833e-05 0.910472
  outer loop
   vertex -0.0216942 -0.9 1.84505
   vertex -0.0196513 -0.9 1.84598
   vertex -0.0223483 -0.4995 1.84473
  endloop
 endfacet
 facet normal -0.484057 0.000101251 0.875036
  outer loop
   vertex -0.0236934 -0.9 1.84403
   vertex -0.0223483 -0.4995 1.84473
   vertex -0.0260145 -0.499323 1.8427
  endloop
 endfacet
 facet normal -0.453994 -2.75392e-05 0.891005
  outer loop
   vertex -0.0236934 -0.9 1.84403
   vertex -0.0216942 -0.9 1.84505
   vertex -0.0223483 -0.4995 1.84473
  endloop
 endfacet
 facet normal -0.493496 2.90186e-05 0.869748
  outer loop
   vertex -0.025645 -0.9 1.84292
   vertex -0.0236934 -0.9 1.84403
   vertex -0.0260145 -0.499323 1.8427
  endloop
 endfacet
 facet normal -0.555327 0.000106061 0.831632
  outer loop
   vertex -0.0275448 -0.9 1.84173
   vertex -0.0260145 -0.499323 1.8427
   vertex -0.0294709 -0.499131 1.84039
  endloop
 endfacet
 facet normal -0.532055 -1.93633e-05 0.84671
  outer loop
   vertex -0.0275448 -0.9 1.84173
   vertex -0.025645 -0.9 1.84292
   vertex -0.0260145 -0.499323 1.8427
  endloop
 endfacet
 facet normal -0.56949 5.87364e-06 0.821998
  outer loop
   vertex -0.0293893 -0.9 1.84045
   vertex -0.0275448 -0.9 1.84173
   vertex -0.0294709 -0.499131 1.84039
  endloop
 endfacet
 facet normal -0.622231 0.000105954 0.782834
  outer loop
   vertex -0.0311745 -0.9 1.83909
   vertex -0.0294709 -0.499131 1.84039
   vertex -0.0327006 -0.49893 1.83782
  endloop
 endfacet
 facet normal -0.605784 -5.43123e-06 0.795629
  outer loop
   vertex -0.0311745 -0.9 1.83909
   vertex -0.0293893 -0.9 1.84045
   vertex -0.0294709 -0.499131 1.84039
  endloop
 endfacet
 facet normal -0.640873 -1.29681e-05 0.767647
  outer loop
   vertex -0.0328969 -0.9 1.83765
   vertex -0.0311745 -0.9 1.83909
   vertex -0.0327006 -0.49893 1.83782
  endloop
 endfacet
 facet normal -0.684463 9.95306e-05 0.729048
  outer loop
   vertex -0.0345531 -0.9 1.83614
   vertex -0.0327006 -0.49893 1.83782
   vertex -0.0356885 -0.498725 1.83502
  endloop
 endfacet
 facet normal -0.674662 1.61301e-05 0.738127
  outer loop
   vertex -0.0345531 -0.9 1.83614
   vertex -0.0328969 -0.9 1.83765
   vertex -0.0327006 -0.49893 1.83782
  endloop
 endfacet
 facet normal -0.70712 -2.58911e-05 0.707094
  outer loop
   vertex -0.0361397 -0.9 1.83455
   vertex -0.0345531 -0.9 1.83614
   vertex -0.0356885 -0.498725 1.83502
  endloop
 endfacet
 facet normal -0.741709 8.51869e-05 0.670722
  outer loop
   vertex -0.0376536 -0.9 1.8329
   vertex -0.0356885 -0.498725 1.83502
   vertex -0.0384208 -0.498522 1.832
  endloop
 endfacet
 facet normal -0.738106 4.65842e-05 0.674685
  outer loop
   vertex -0.0376536 -0.9 1.8329
   vertex -0.0361397 -0.9 1.83455
   vertex -0.0356885 -0.498725 1.83502
  endloop
 endfacet
 facet normal -0.793707 7.89562e-05 0.6083
  outer loop
   vertex -0.0390916 -0.9 1.83117
   vertex -0.0384208 -0.498522 1.832
   vertex -0.0408852 -0.498326 1.82878
  endloop
 endfacet
 facet normal -0.76766 -3.13119e-05 0.640857
  outer loop
   vertex -0.0390916 -0.9 1.83117
   vertex -0.0376536 -0.9 1.8329
   vertex -0.0384208 -0.498522 1.832
  endloop
 endfacet
 facet normal -0.795613 5.55892e-05 0.605805
  outer loop
   vertex -0.0404509 -0.9 1.82939
   vertex -0.0390916 -0.9 1.83117
   vertex -0.0408852 -0.498326 1.82878
  endloop
 endfacet
 facet normal -0.840251 9.44036e-05 0.542198
  outer loop
   vertex -0.0417287 -0.9 1.82754
   vertex -0.0408852 -0.498326 1.82878
   vertex -0.0430712 -0.498141 1.82539
  endloop
 endfacet
 facet normal -0.822012 -2.78937e-05 0.56947
  outer loop
   vertex -0.0417287 -0.9 1.82754
   vertex -0.0404509 -0.9 1.82939
   vertex -0.0408852 -0.498326 1.82878
  endloop
 endfacet
 facet normal -0.846711 1.85253e-05 0.532053
  outer loop
   vertex -0.0429224 -0.9 1.82565
   vertex -0.0417287 -0.9 1.82754
   vertex -0.0430712 -0.498141 1.82539
  endloop
 endfacet
 facet normal -0.869742 -1.40499e-05 0.493507
  outer loop
   vertex -0.0440298 -0.9 1.82369
   vertex -0.0429224 -0.9 1.82565
   vertex -0.0430712 -0.498141 1.82539
  endloop
 endfacet
 facet normal -0.883209 0.000121884 0.46898
  outer loop
   vertex -0.0440298 -0.9 1.82369
   vertex -0.0430712 -0.498141 1.82539
   vertex -0.0451623 -0.497956 1.82146
  endloop
 endfacet
 facet normal -0.891009 1.64771e-05 0.453986
  outer loop
   vertex -0.0450484 -0.9 1.82169
   vertex -0.0440298 -0.9 1.82369
   vertex -0.0451623 -0.497956 1.82146
  endloop
 endfacet
 facet normal -0.91048 -1.29762e-05 0.413553
  outer loop
   vertex -0.0459764 -0.9 1.81965
   vertex -0.0450484 -0.9 1.82169
   vertex -0.0451623 -0.497956 1.82146
  endloop
 endfacet
 facet normal -0.921415 0.000121278 0.38858
  outer loop
   vertex -0.0459764 -0.9 1.81965
   vertex -0.0451623 -0.497956 1.82146
   vertex -0.0468884 -0.497797 1.81736
  endloop
 endfacet
 facet normal -0.928115 1.3433e-05 0.372293
  outer loop
   vertex -0.0468117 -0.9 1.81757
   vertex -0.0459764 -0.9 1.81965
   vertex -0.0468884 -0.497797 1.81736
  endloop
 endfacet
 facet normal -0.943885 -1.10476e-05 0.330275
  outer loop
   vertex -0.0475528 -0.9 1.81545
   vertex -0.0468117 -0.9 1.81757
   vertex -0.0468884 -0.497797 1.81736
  endloop
 endfacet
 facet normal -0.952237 0.000121214 0.30536
  outer loop
   vertex -0.0475528 -0.9 1.81545
   vertex -0.0468884 -0.497797 1.81736
   vertex -0.0482418 -0.497667 1.81314
  endloop
 endfacet
 facet normal -0.957748 9.93474e-06 0.287609
  outer loop
   vertex -0.0481981 -0.9 1.8133
   vertex -0.0475528 -0.9 1.81545
   vertex -0.0482418 -0.497667 1.81314
  endloop
 endfacet
 facet normal -0.969689 -8.50704e-06 0.244342
  outer loop
   vertex -0.0487464 -0.9 1.81113
   vertex -0.0481981 -0.9 1.8133
   vertex -0.0482418 -0.497667 1.81314
  endloop
 endfacet
 facet normal -0.975532 0.000121521 0.219859
  outer loop
   vertex -0.0487464 -0.9 1.81113
   vertex -0.0482418 -0.497667 1.81314
   vertex -0.0492157 -0.497572 1.80882
  endloop
 endfacet
 facet normal -0.979676 6.32157e-06 0.200586
  outer loop
   vertex -0.0491965 -0.9 1.80893
   vertex -0.0487464 -0.9 1.81113
   vertex -0.0492157 -0.497572 1.80882
  endloop
 endfacet
 facet normal -0.987688 -5.72526e-06 0.156434
  outer loop
   vertex -0.0495475 -0.9 1.80671
   vertex -0.0491965 -0.9 1.80893
   vertex -0.0492157 -0.497572 1.80882
  endloop
 endfacet
 facet normal -0.991144 0.000121083 0.132791
  outer loop
   vertex -0.0495475 -0.9 1.80671
   vertex -0.0492157 -0.497572 1.80882
   vertex -0.0498021 -0.497514 1.80444
  endloop
 endfacet
 facet normal -0.993713 2.1273e-06 0.111962
  outer loop
   vertex -0.0497987 -0.9 1.80448
   vertex -0.0495475 -0.9 1.80671
   vertex -0.0498021 -0.497514 1.80444
  endloop
 endfacet
 facet normal -0.997735 -2.06735e-06 0.0672719
  outer loop
   vertex -0.0499497 -0.9 1.80224
   vertex -0.0497987 -0.9 1.80448
   vertex -0.0498021 -0.497514 1.80444
  endloop
 endfacet
 facet normal -0.99901 0.000122995 0.0444896
  outer loop
   vertex -0.0499497 -0.9 1.80224
   vertex -0.0498021 -0.497514 1.80444
   vertex -0.05 -0.497494 1.8
  endloop
 endfacet
 facet normal -0.999748 0 0.0224375
  outer loop
   vertex -0.05 -0.9 1.8
   vertex -0.0499497 -0.9 1.80224
   vertex -0.05 -0.497494 1.8
  endloop
 endfacet
 facet normal -0.99901 0.000122995 -0.0444896
  outer loop
   vertex -0.0499497 -0.9 1.79776
   vertex -0.05 -0.497494 1.8
   vertex -0.0498021 -0.497514 1.79556
  endloop
 endfacet
 facet normal -0.999748 0 -0.0224375
  outer loop
   vertex -0.0499497 -0.9 1.79776
   vertex -0.05 -0.9 1.8
   vertex -0.05 -0.497494 1.8
  endloop
 endfacet
 facet normal -0.997735 -2.06735e-06 -0.0672719
  outer loop
   vertex -0.0497987 -0.9 1.79552
   vertex -0.0499497 -0.9 1.79776
   vertex -0.0498021 -0.497514 1.79556
  endloop
 endfacet
 facet normal -0.991144 0.000121083 -0.132791
  outer loop
   vertex -0.0495475 -0.9 1.79329
   vertex -0.0498021 -0.497514 1.79556
   vertex -0.0492157 -0.497572 1.79118
  endloop
 endfacet
 facet normal -0.993713 2.1273e-06 -0.111962
  outer loop
   vertex -0.0495475 -0.9 1.79329
   vertex -0.0497987 -0.9 1.79552
   vertex -0.0498021 -0.497514 1.79556
  endloop
 endfacet
 facet normal -0.987688 -5.72526e-06 -0.156434
  outer loop
   vertex -0.0491965 -0.9 1.79107
   vertex -0.0495475 -0.9 1.79329
   vertex -0.0492157 -0.497572 1.79118
  endloop
 endfacet
 facet normal -0.975532 0.000121521 -0.219859
  outer loop
   vertex -0.0487464 -0.9 1.78887
   vertex -0.0492157 -0.497572 1.79118
   vertex -0.0482418 -0.497667 1.78686
  endloop
 endfacet
 facet normal -0.979676 6.32157e-06 -0.200586
  outer loop
   vertex -0.0487464 -0.9 1.78887
   vertex -0.0491965 -0.9 1.79107
   vertex -0.0492157 -0.497572 1.79118
  endloop
 endfacet
 facet normal -0.969689 -8.50704e-06 -0.244342
  outer loop
   vertex -0.0481981 -0.9 1.7867
   vertex -0.0487464 -0.9 1.78887
   vertex -0.0482418 -0.497667 1.78686
  endloop
 endfacet
 facet normal -0.952237 0.000121214 -0.30536
  outer loop
   vertex -0.0475528 -0.9 1.78455
   vertex -0.0482418 -0.497667 1.78686
   vertex -0.0468884 -0.497797 1.78264
  endloop
 endfacet
 facet normal -0.957748 9.93474e-06 -0.287609
  outer loop
   vertex -0.0475528 -0.9 1.78455
   vertex -0.0481981 -0.9 1.7867
   vertex -0.0482418 -0.497667 1.78686
  endloop
 endfacet
 facet normal -0.943885 -1.10476e-05 -0.330275
  outer loop
   vertex -0.0468117 -0.9 1.78243
   vertex -0.0475528 -0.9 1.78455
   vertex -0.0468884 -0.497797 1.78264
  endloop
 endfacet
 facet normal -0.921415 0.000121278 -0.38858
  outer loop
   vertex -0.0459764 -0.9 1.78035
   vertex -0.0468884 -0.497797 1.78264
   vertex -0.0451623 -0.497956 1.77854
  endloop
 endfacet
 facet normal -0.928115 1.3433e-05 -0.372293
  outer loop
   vertex -0.0459764 -0.9 1.78035
   vertex -0.0468117 -0.9 1.78243
   vertex -0.0468884 -0.497797 1.78264
  endloop
 endfacet
 facet normal -0.91048 -1.29762e-05 -0.413553
  outer loop
   vertex -0.0450484 -0.9 1.77831
   vertex -0.0459764 -0.9 1.78035
   vertex -0.0451623 -0.497956 1.77854
  endloop
 endfacet
 facet normal -0.883209 0.000121884 -0.46898
  outer loop
   vertex -0.0440298 -0.9 1.77631
   vertex -0.0451623 -0.497956 1.77854
   vertex -0.0430712 -0.498141 1.77461
  endloop
 endfacet
 facet normal -0.891009 1.64771e-05 -0.453986
  outer loop
   vertex -0.0440298 -0.9 1.77631
   vertex -0.0450484 -0.9 1.77831
   vertex -0.0451623 -0.497956 1.77854
  endloop
 endfacet
 facet normal -0.869742 -1.40499e-05 -0.493507
  outer loop
   vertex -0.0429224 -0.9 1.77435
   vertex -0.0440298 -0.9 1.77631
   vertex -0.0430712 -0.498141 1.77461
  endloop
 endfacet
 facet normal -0.840251 9.44036e-05 -0.542198
  outer loop
   vertex -0.0417287 -0.9 1.77246
   vertex -0.0430712 -0.498141 1.77461
   vertex -0.0408852 -0.498326 1.77122
  endloop
 endfacet
 facet normal -0.846711 1.85253e-05 -0.532053
  outer loop
   vertex -0.0417287 -0.9 1.77246
   vertex -0.0429224 -0.9 1.77435
   vertex -0.0430712 -0.498141 1.77461
  endloop
 endfacet
 facet normal -0.822012 -2.78937e-05 -0.56947
  outer loop
   vertex -0.0404509 -0.9 1.77061
   vertex -0.0417287 -0.9 1.77246
   vertex -0.0408852 -0.498326 1.77122
  endloop
 endfacet
 facet normal -0.793707 7.89562e-05 -0.6083
  outer loop
   vertex -0.0390916 -0.9 1.76883
   vertex -0.0408852 -0.498326 1.77122
   vertex -0.0384208 -0.498522 1.768
  endloop
 endfacet
 facet normal -0.795613 5.55892e-05 -0.605805
  outer loop
   vertex -0.0390916 -0.9 1.76883
   vertex -0.0404509 -0.9 1.77061
   vertex -0.0408852 -0.498326 1.77122
  endloop
 endfacet
 facet normal -0.741709 8.51869e-05 -0.670722
  outer loop
   vertex -0.0376536 -0.9 1.7671
   vertex -0.0384208 -0.498522 1.768
   vertex -0.0356885 -0.498725 1.76498
  endloop
 endfacet
 facet normal -0.76766 -3.13119e-05 -0.640857
  outer loop
   vertex -0.0376536 -0.9 1.7671
   vertex -0.0390916 -0.9 1.76883
   vertex -0.0384208 -0.498522 1.768
  endloop
 endfacet
 facet normal -0.738106 4.65842e-05 -0.674685
  outer loop
   vertex -0.0361397 -0.9 1.76545
   vertex -0.0376536 -0.9 1.7671
   vertex -0.0356885 -0.498725 1.76498
  endloop
 endfacet
 facet normal -0.684463 9.95306e-05 -0.729048
  outer loop
   vertex -0.0345531 -0.9 1.76386
   vertex -0.0356885 -0.498725 1.76498
   vertex -0.0327006 -0.49893 1.76218
  endloop
 endfacet
 facet normal -0.70712 -2.58911e-05 -0.707094
  outer loop
   vertex -0.0345531 -0.9 1.76386
   vertex -0.0361397 -0.9 1.76545
   vertex -0.0356885 -0.498725 1.76498
  endloop
 endfacet
 facet normal -0.674662 1.61301e-05 -0.738127
  outer loop
   vertex -0.0328969 -0.9 1.76235
   vertex -0.0345531 -0.9 1.76386
   vertex -0.0327006 -0.49893 1.76218
  endloop
 endfacet
 facet normal -0.622231 0.000105954 -0.782834
  outer loop
   vertex -0.0311745 -0.9 1.76091
   vertex -0.0327006 -0.49893 1.76218
   vertex -0.0294709 -0.499131 1.75961
  endloop
 endfacet
 facet normal -0.640873 -1.29681e-05 -0.767647
  outer loop
   vertex -0.0311745 -0.9 1.76091
   vertex -0.0328969 -0.9 1.76235
   vertex -0.0327006 -0.49893 1.76218
  endloop
 endfacet
 facet normal -0.605784 -5.43123e-06 -0.795629
  outer loop
   vertex -0.0293893 -0.9 1.75955
   vertex -0.0311745 -0.9 1.76091
   vertex -0.0294709 -0.499131 1.75961
  endloop
 endfacet
 facet normal -0.56949 5.87364e-06 -0.821998
  outer loop
   vertex -0.0275448 -0.9 1.75827
   vertex -0.0293893 -0.9 1.75955
   vertex -0.0294709 -0.499131 1.75961
  endloop
 endfacet
 facet normal -0.555327 0.000106061 -0.831632
  outer loop
   vertex -0.0275448 -0.9 1.75827
   vertex -0.0294709 -0.499131 1.75961
   vertex -0.0260145 -0.499323 1.7573
  endloop
 endfacet
 facet normal -0.532055 -1.93633e-05 -0.84671
  outer loop
   vertex -0.025645 -0.9 1.75708
   vertex -0.0275448 -0.9 1.75827
   vertex -0.0260145 -0.499323 1.7573
  endloop
 endfacet
 facet normal -0.493496 2.90186e-05 -0.869748
  outer loop
   vertex -0.0236934 -0.9 1.75597
   vertex -0.025645 -0.9 1.75708
   vertex -0.0260145 -0.499323 1.7573
  endloop
 endfacet
 facet normal -0.484057 0.000101251 -0.875036
  outer loop
   vertex -0.0236934 -0.9 1.75597
   vertex -0.0260145 -0.499323 1.7573
   vertex -0.0223483 -0.4995 1.75527
  endloop
 endfacet
 facet normal -0.453994 -2.75392e-05 -0.891005
  outer loop
   vertex -0.0216942 -0.9 1.75495
   vertex -0.0236934 -0.9 1.75597
   vertex -0.0223483 -0.4995 1.75527
  endloop
 endfacet
 facet normal -0.408757 9.32732e-05 -0.912643
  outer loop
   vertex -0.0196513 -0.9 1.75402
   vertex -0.0223483 -0.4995 1.75527
   vertex -0.018492 -0.499658 1.75355
  endloop
 endfacet
 facet normal -0.413571 5.40833e-05 -0.910472
  outer loop
   vertex -0.0196513 -0.9 1.75402
   vertex -0.0216942 -0.9 1.75495
   vertex -0.0223483 -0.4995 1.75527
  endloop
 endfacet
 facet normal -0.372283 -3.08256e-05 -0.928119
  outer loop
   vertex -0.0175687 -0.9 1.75319
   vertex -0.0196513 -0.9 1.75402
   vertex -0.018492 -0.499658 1.75355
  endloop
 endfacet
 facet normal -0.32992 8.31991e-05 -0.944009
  outer loop
   vertex -0.0154508 -0.9 1.75245
   vertex -0.018492 -0.499658 1.75355
   vertex -0.0144687 -0.499791 1.75214
  endloop
 endfacet
 facet normal -0.330282 8.01006e-05 -0.943882
  outer loop
   vertex -0.0154508 -0.9 1.75245
   vertex -0.0175687 -0.9 1.75319
   vertex -0.018492 -0.499658 1.75355
  endloop
 endfacet
 facet normal -0.248033 9.32653e-05 -0.968751
  outer loop
   vertex -0.0133018 -0.9 1.7518
   vertex -0.0144687 -0.499791 1.75214
   vertex -0.0103117 -0.499894 1.75107
  endloop
 endfacet
 facet normal -0.287578 -3.1294e-05 -0.957757
  outer loop
   vertex -0.0133018 -0.9 1.7518
   vertex -0.0154508 -0.9 1.75245
   vertex -0.0144687 -0.499791 1.75214
  endloop
 endfacet
 facet normal -0.244326 6.38467e-05 -0.969693
  outer loop
   vertex -0.011126 -0.9 1.75125
   vertex -0.0133018 -0.9 1.7518
   vertex -0.0103117 -0.499894 1.75107
  endloop
 endfacet
 facet normal -0.164091 0.000101476 -0.986445
  outer loop
   vertex -0.00892785 -0.9 1.7508
   vertex -0.0103117 -0.499894 1.75107
   vertex -0.00608341 -0.499963 1.75037
  endloop
 endfacet
 facet normal -0.200637 -2.95282e-05 -0.979666
  outer loop
   vertex -0.00892785 -0.9 1.7508
   vertex -0.011126 -0.9 1.75125
   vertex -0.0103117 -0.499894 1.75107
  endloop
 endfacet
 facet normal -0.15641 4.55157e-05 -0.987692
  outer loop
   vertex -0.00671166 -0.9 1.75045
   vertex -0.00892785 -0.9 1.7508
   vertex -0.00608341 -0.499963 1.75037
  endloop
 endfacet
 facet normal -0.0798143 0.000104503 -0.99681
  outer loop
   vertex -0.00448197 -0.9 1.7502
   vertex -0.00608341 -0.499963 1.75037
   vertex -0.00189094 -0.499996 1.75004
  endloop
 endfacet
 facet normal -0.111962 -2.55092e-05 -0.993713
  outer loop
   vertex -0.00448197 -0.9 1.7502
   vertex -0.00671166 -0.9 1.75045
   vertex -0.00608341 -0.499963 1.75037
  endloop
 endfacet
 facet normal -0.0672967 2.30374e-05 -0.997733
  outer loop
   vertex -0.00224324 -0.9 1.75005
   vertex -0.00448197 -0.9 1.7502
   vertex -0.00189094 -0.499996 1.75004
  endloop
 endfacet
 facet normal 0.00256942 0.000101562 -0.999997
  outer loop
   vertex -9.18485e-18 -0.9 1.75
   vertex -0.00189094 -0.499996 1.75004
   vertex 0.00214726 -0.499995 1.75005
  endloop
 endfacet
 facet normal -0.0224141 -1.65655e-05 -0.999749
  outer loop
   vertex -9.18485e-18 -0.9 1.75
   vertex -0.00224324 -0.9 1.75005
   vertex -0.00189094 -0.499996 1.75004
  endloop
 endfacet
 facet normal 0.0224141 -4.99512e-06 -0.999749
  outer loop
   vertex 0.00224324 -0.9 1.75005
   vertex -9.18485e-18 -0.9 1.75
   vertex 0.00214726 -0.499995 1.75005
  endloop
 endfacet
 facet normal 0.0857407 0.000113996 -0.996317
  outer loop
   vertex 0.00448197 -0.9 1.7502
   vertex 0.00214726 -0.499995 1.75005
   vertex 0.00641965 -0.499959 1.75041
  endloop
 endfacet
 facet normal 0.0672967 5.79506e-06 -0.997733
  outer loop
   vertex 0.00448197 -0.9 1.7502
   vertex 0.00224324 -0.9 1.75005
   vertex 0.00214726 -0.499995 1.75005
  endloop
 endfacet
 facet normal 0.111962 -1.43959e-05 -0.993713
  outer loop
   vertex 0.00671166 -0.9 1.75045
   vertex 0.00448197 -0.9 1.7502
   vertex 0.00641965 -0.499959 1.75041
  endloop
 endfacet
 facet normal 0.169839 0.00010499 -0.985472
  outer loop
   vertex 0.00892785 -0.9 1.7508
   vertex 0.00641965 -0.499959 1.75041
   vertex 0.010549 -0.499889 1.75113
  endloop
 endfacet
 facet normal 0.15641 1.86313e-05 -0.987692
  outer loop
   vertex 0.00892785 -0.9 1.7508
   vertex 0.00671166 -0.9 1.75045
   vertex 0.00641965 -0.499959 1.75041
  endloop
 endfacet
 facet normal 0.200637 -2.44706e-05 -0.979666
  outer loop
   vertex 0.011126 -0.9 1.75125
   vertex 0.00892785 -0.9 1.7508
   vertex 0.010549 -0.499889 1.75113
  endloop
 endfacet
 facet normal 0.251598 9.4911e-05 -0.967832
  outer loop
   vertex 0.0133018 -0.9 1.7518
   vertex 0.010549 -0.499889 1.75113
   vertex 0.0145887 -0.499787 1.75218
  endloop
 endfacet
 facet normal 0.244326 4.17323e-05 -0.969693
  outer loop
   vertex 0.0133018 -0.9 1.7518
   vertex 0.011126 -0.9 1.75125
   vertex 0.010549 -0.499889 1.75113
  endloop
 endfacet
 facet normal 0.287578 -3.01889e-05 -0.957757
  outer loop
   vertex 0.0154508 -0.9 1.75245
   vertex 0.0133018 -0.9 1.7518
   vertex 0.0145887 -0.499787 1.75218
  endloop
 endfacet
 facet normal 0.331659 8.26945e-05 -0.943399
  outer loop
   vertex 0.0175687 -0.9 1.75319
   vertex 0.0145887 -0.499787 1.75218
   vertex 0.0185478 -0.499656 1.75357
  endloop
 endfacet
 facet normal 0.330282 7.12175e-05 -0.943882
  outer loop
   vertex 0.0175687 -0.9 1.75319
   vertex 0.0154508 -0.9 1.75245
   vertex 0.0145887 -0.499787 1.75218
  endloop
 endfacet
 facet normal 0.409907 9.07959e-05 -0.912128
  outer loop
   vertex 0.0196513 -0.9 1.75402
   vertex 0.0185478 -0.499656 1.75357
   vertex 0.0224073 -0.499498 1.7553
  endloop
 endfacet
 facet normal 0.372283 -3.11251e-05 -0.928119
  outer loop
   vertex 0.0196513 -0.9 1.75402
   vertex 0.0175687 -0.9 1.75319
   vertex 0.0185478 -0.499656 1.75357
  endloop
 endfacet
 facet normal 0.413571 6.02964e-05 -0.910472
  outer loop
   vertex 0.0216942 -0.9 1.75495
   vertex 0.0196513 -0.9 1.75402
   vertex 0.0224073 -0.499498 1.7553
  endloop
 endfacet
 facet normal 0.485907 0.000102116 -0.87401
  outer loop
   vertex 0.0236934 -0.9 1.75597
   vertex 0.0224073 -0.499498 1.7553
   vertex 0.02614 -0.499316 1.75738
  endloop
 endfacet
 facet normal 0.453994 -2.87181e-05 -0.891005
  outer loop
   vertex 0.0236934 -0.9 1.75597
   vertex 0.0216942 -0.9 1.75495
   vertex 0.0224073 -0.499498 1.7553
  endloop
 endfacet
 facet normal 0.493496 4.08139e-05 -0.869748
  outer loop
   vertex 0.025645 -0.9 1.75708
   vertex 0.0236934 -0.9 1.75597
   vertex 0.02614 -0.499316 1.75738
  endloop
 endfacet
 facet normal 0.559035 0.000109744 -0.829144
  outer loop
   vertex 0.0275448 -0.9 1.75827
   vertex 0.02614 -0.499316 1.75738
   vertex 0.0297115 -0.499116 1.75979
  endloop
 endfacet
 facet normal 0.532055 -2.4055e-05 -0.84671
  outer loop
   vertex 0.0275448 -0.9 1.75827
   vertex 0.025645 -0.9 1.75708
   vertex 0.02614 -0.499316 1.75738
  endloop
 endfacet
 facet normal 0.56949 2.62513e-05 -0.821998
  outer loop
   vertex 0.0293893 -0.9 1.75955
   vertex 0.0275448 -0.9 1.75827
   vertex 0.0297115 -0.499116 1.75979
  endloop
 endfacet
 facet normal 0.628599 0.000114955 -0.77773
  outer loop
   vertex 0.0311745 -0.9 1.76091
   vertex 0.0297115 -0.499116 1.75979
   vertex 0.0330901 -0.498904 1.76252
  endloop
 endfacet
 facet normal 0.605784 -1.84551e-05 -0.795629
  outer loop
   vertex 0.0311745 -0.9 1.76091
   vertex 0.0293893 -0.9 1.75955
   vertex 0.0297115 -0.499116 1.75979
  endloop
 endfacet
 facet normal 0.640873 1.59296e-05 -0.767647
  outer loop
   vertex 0.0328969 -0.9 1.76235
   vertex 0.0311745 -0.9 1.76091
   vertex 0.0330901 -0.498904 1.76252
  endloop
 endfacet
 facet normal 0.693985 0.000118453 -0.71999
  outer loop
   vertex 0.0345531 -0.9 1.76386
   vertex 0.0330901 -0.498904 1.76252
   vertex 0.036242 -0.498685 1.76555
  endloop
 endfacet
 facet normal 0.674662 -1.28187e-05 -0.738127
  outer loop
   vertex 0.0345531 -0.9 1.76386
   vertex 0.0328969 -0.9 1.76235
   vertex 0.0330901 -0.498904 1.76252
  endloop
 endfacet
 facet normal 0.70712 8.75133e-06 -0.707094
  outer loop
   vertex 0.0361397 -0.9 1.76545
   vertex 0.0345531 -0.9 1.76386
   vertex 0.036242 -0.498685 1.76555
  endloop
 endfacet
 facet normal 0.754492 0.000120771 -0.656309
  outer loop
   vertex 0.0376536 -0.9 1.7671
   vertex 0.036242 -0.498685 1.76555
   vertex 0.0391348 -0.498466 1.76888
  endloop
 endfacet
 facet normal 0.738106 -7.79551e-06 -0.674685
  outer loop
   vertex 0.0376536 -0.9 1.7671
   vertex 0.0361397 -0.9 1.76545
   vertex 0.036242 -0.498685 1.76555
  endloop
 endfacet
 facet normal 0.76766 3.82229e-06 -0.640857
  outer loop
   vertex 0.0390916 -0.9 1.76883
   vertex 0.0376536 -0.9 1.7671
   vertex 0.0391348 -0.498466 1.76888
  endloop
 endfacet
 facet normal 0.795613 -3.91964e-06 -0.605805
  outer loop
   vertex 0.0404509 -0.9 1.77061
   vertex 0.0390916 -0.9 1.76883
   vertex 0.0391348 -0.498466 1.76888
  endloop
 endfacet
 facet normal 0.809533 0.000122448 -0.587075
  outer loop
   vertex 0.0404509 -0.9 1.77061
   vertex 0.0391348 -0.498466 1.76888
   vertex 0.0417384 -0.498255 1.77247
  endloop
 endfacet
 facet normal 0.822012 9.79001e-07 -0.56947
  outer loop
   vertex 0.0417287 -0.9 1.77246
   vertex 0.0404509 -0.9 1.77061
   vertex 0.0417384 -0.498255 1.77247
  endloop
 endfacet
 facet normal 0.846711 -9.96375e-07 -0.532053
  outer loop
   vertex 0.0429224 -0.9 1.77435
   vertex 0.0417287 -0.9 1.77246
   vertex 0.0417384 -0.498255 1.77247
  endloop
 endfacet
 facet normal 0.858476 0.000123761 -0.512853
  outer loop
   vertex 0.0429224 -0.9 1.77435
   vertex 0.0417384 -0.498255 1.77247
   vertex 0.0440247 -0.498058 1.7763
  endloop
 endfacet
 facet normal 0.869742 -6.04847e-07 -0.493507
  outer loop
   vertex 0.0440298 -0.9 1.77631
   vertex 0.0429224 -0.9 1.77435
   vertex 0.0440247 -0.498058 1.7763
  endloop
 endfacet
 facet normal 0.891009 6.02424e-07 -0.453986
  outer loop
   vertex 0.0450484 -0.9 1.77831
   vertex 0.0440298 -0.9 1.77631
   vertex 0.0440247 -0.498058 1.7763
  endloop
 endfacet
 facet normal 0.898872 9.94718e-05 -0.438211
  outer loop
   vertex 0.0450484 -0.9 1.77831
   vertex 0.0440247 -0.498058 1.7763
   vertex 0.0457897 -0.497899 1.77992
  endloop
 endfacet
 facet normal 0.91048 -2.07612e-05 -0.413553
  outer loop
   vertex 0.0459764 -0.9 1.78035
   vertex 0.0450484 -0.9 1.77831
   vertex 0.0457897 -0.497899 1.77992
  endloop
 endfacet
 facet normal 0.928115 3.16805e-05 -0.372293
  outer loop
   vertex 0.0468117 -0.9 1.78243
   vertex 0.0459764 -0.9 1.78035
   vertex 0.0457897 -0.497899 1.77992
  endloop
 endfacet
 facet normal 0.931264 8.93673e-05 -0.364346
  outer loop
   vertex 0.0468117 -0.9 1.78243
   vertex 0.0457897 -0.497899 1.77992
   vertex 0.0472606 -0.497761 1.78368
  endloop
 endfacet
 facet normal 0.943885 -3.02562e-05 -0.330275
  outer loop
   vertex 0.0475528 -0.9 1.78455
   vertex 0.0468117 -0.9 1.78243
   vertex 0.0472606 -0.497761 1.78368
  endloop
 endfacet
 facet normal 0.957633 7.13902e-05 -0.287991
  outer loop
   vertex 0.0475528 -0.9 1.78455
   vertex 0.0472606 -0.497761 1.78368
   vertex 0.0484246 -0.49765 1.78755
  endloop
 endfacet
 facet normal 0.957748 6.82928e-05 -0.287609
  outer loop
   vertex 0.0481981 -0.9 1.7867
   vertex 0.0475528 -0.9 1.78455
   vertex 0.0484246 -0.49765 1.78755
  endloop
 endfacet
 facet normal 0.969689 -2.98066e-05 -0.244342
  outer loop
   vertex 0.0487464 -0.9 1.78887
   vertex 0.0481981 -0.9 1.7867
   vertex 0.0484246 -0.49765 1.78755
  endloop
 endfacet
 facet normal 0.977765 9.08082e-05 -0.209704
  outer loop
   vertex 0.0487464 -0.9 1.78887
   vertex 0.0484246 -0.49765 1.78755
   vertex 0.0492721 -0.497566 1.7915
  endloop
 endfacet
 facet normal 0.979676 2.88308e-05 -0.200586
  outer loop
   vertex 0.0491965 -0.9 1.79107
   vertex 0.0487464 -0.9 1.78887
   vertex 0.0492721 -0.497566 1.7915
  endloop
 endfacet
 facet normal 0.991499 0.000100096 -0.130116
  outer loop
   vertex 0.0495475 -0.9 1.79329
   vertex 0.0492721 -0.497566 1.7915
   vertex 0.0497971 -0.497514 1.7955
  endloop
 endfacet
 facet normal 0.987688 -1.95213e-05 -0.156434
  outer loop
   vertex 0.0495475 -0.9 1.79329
   vertex 0.0491965 -0.9 1.79107
   vertex 0.0492721 -0.497566 1.7915
  endloop
 endfacet
 facet normal 0.997715 1.01127e-06 -0.0675655
  outer loop
   vertex 0.0497987 -0.9 1.79552
   vertex 0.0497971 -0.497514 1.7955
   vertex 0.0499491 -0.497499 1.79775
  endloop
 endfacet
 facet normal 0.993713 -1.02486e-06 -0.111962
  outer loop
   vertex 0.0497987 -0.9 1.79552
   vertex 0.0495475 -0.9 1.79329
   vertex 0.0497971 -0.497514 1.7955
  endloop
 endfacet
 facet normal 0.999746 6.43033e-07 -0.0225528
  outer loop
   vertex 0.0499497 -0.9 1.79776
   vertex 0.0499491 -0.497499 1.79775
   vertex 0.05 -0.497494 1.8
  endloop
 endfacet
 facet normal 0.997735 -6.20841e-07 -0.0672719
  outer loop
   vertex 0.0499497 -0.9 1.79776
   vertex 0.0497987 -0.9 1.79552
   vertex 0.0499491 -0.497499 1.79775
  endloop
 endfacet
 facet normal 0.999748 0 -0.0224375
  outer loop
   vertex 0.05 -0.9 1.8
   vertex 0.0499497 -0.9 1.79776
   vertex 0.05 -0.497494 1.8
  endloop
 endfacet
endsolid zone0
