solid zone0
 facet normal -0.532032 -0.846725 0
  outer loop
   vertex -0.025645 -0.0429224 0
   vertex -0.0275448 -0.0417287 0
   vertex -0.0275448 -0.0417287 -0.2
  endloop
 endfacet
 facet normal -0.493509 -0.869741 -0
  outer loop
   vertex -0.0236934 -0.0440298 0
   vertex -0.025645 -0.0429224 -0.2
   vertex -0.0236934 -0.0440298 -0.2
  endloop
 endfacet
 facet normal -0.493509 -0.869741 0
  outer loop
   vertex -0.0236934 -0.0440298 0
   vertex -0.025645 -0.0429224 0
   vertex -0.025645 -0.0429224 -0.2
  endloop
 endfacet
 facet normal -0.45399 -0.891007 -0
  outer loop
   vertex -0.0216942 -0.0450484 0
   vertex -0.0236934 -0.0440298 -0.2
   vertex -0.0216942 -0.0450484 -0.2
  endloop
 endfacet
 facet normal -0.45399 -0.891007 0
  outer loop
   vertex -0.0216942 -0.0450484 0
   vertex -0.0236934 -0.0440298 0
   vertex -0.0236934 -0.0440298 -0.2
  endloop
 endfacet
 facet normal 0.999748 0.0224379 0
  outer loop
   vertex 0.0499497 0.00224324 0
   vertex 0.05 -1.22465e-17 -0.2
   vertex 0.0499497 0.00224324 -0.2
  endloop
 endfacet
 facet normal 0.999748 0.0224379 0
  outer loop
   vertex 0.0499497 0.00224324 0
   vertex 0.05 -1.22465e-17 0
   vertex 0.05 -1.22465e-17 -0.2
  endloop
 endfacet
 facet normal -0.413558 -0.910478 -0
  outer loop
   vertex -0.0196513 -0.0459764 0
   vertex -0.0216942 -0.0450484 -0.2
   vertex -0.0196513 -0.0459764 -0.2
  endloop
 endfacet
 facet normal -0.413558 -0.910478 0
  outer loop
   vertex -0.0196513 -0.0459764 0
   vertex -0.0216942 -0.0450484 0
   vertex -0.0216942 -0.0450484 -0.2
  endloop
 endfacet
 facet normal 0.997735 0.0672696 0
  outer loop
   vertex 0.0497987 0.00448197 0
   vertex 0.0499497 0.00224324 -0.2
   vertex 0.0497987 0.00448197 -0.2
  endloop
 endfacet
 facet normal 0.997735 0.0672696 0
  outer loop
   vertex 0.0497987 0.00448197 0
   vertex 0.0499497 0.00224324 0
   vertex 0.0499497 0.00224324 -0.2
  endloop
 endfacet
 facet normal -0.372295 -0.928115 -0
  outer loop
   vertex -0.0175687 -0.0468117 0
   vertex -0.0196513 -0.0459764 -0.2
   vertex -0.0175687 -0.0468117 -0.2
  endloop
 endfacet
 facet normal -0.330279 -0.943883 -0
  outer loop
   vertex -0.0175687 -0.0468117 0
   vertex -0.0175687 -0.0468117 -0.2
   vertex -0.0154508 -0.0475528 -0.2
  endloop
 endfacet
 facet normal -0.372295 -0.928115 0
  outer loop
   vertex -0.0175687 -0.0468117 0
   vertex -0.0196513 -0.0459764 0
   vertex -0.0196513 -0.0459764 -0.2
  endloop
 endfacet
 facet normal 0.993712 0.111964 0
  outer loop
   vertex 0.0495475 0.00671166 0
   vertex 0.0497987 0.00448197 -0.2
   vertex 0.0495475 0.00671166 -0.2
  endloop
 endfacet
 facet normal 0.987688 0.156435 0
  outer loop
   vertex 0.0495475 0.00671166 0
   vertex 0.0495475 0.00671166 -0.2
   vertex 0.0491965 0.00892785 -0.2
  endloop
 endfacet
 facet normal 0.993712 0.111964 0
  outer loop
   vertex 0.0495475 0.00671166 0
   vertex 0.0497987 0.00448197 0
   vertex 0.0497987 0.00448197 -0.2
  endloop
 endfacet
 facet normal -0.330279 -0.943883 -0
  outer loop
   vertex -0.0154508 -0.0475528 0
   vertex -0.0175687 -0.0468117 0
   vertex -0.0154508 -0.0475528 -0.2
  endloop
 endfacet
 facet normal 0.987688 0.156435 0
  outer loop
   vertex 0.0491965 0.00892785 0
   vertex 0.0495475 0.00671166 0
   vertex 0.0491965 0.00892785 -0.2
  endloop
 endfacet
 facet normal -0.287599 -0.957751 -0
  outer loop
   vertex -0.0133018 -0.0481981 0
   vertex -0.0154508 -0.0475528 -0.2
   vertex -0.0133018 -0.0481981 -0.2
  endloop
 endfacet
 facet normal -0.287599 -0.957751 0
  outer loop
   vertex -0.0133018 -0.0481981 0
   vertex -0.0154508 -0.0475528 0
   vertex -0.0154508 -0.0475528 -0.2
  endloop
 endfacet
 facet normal 0.979675 0.20059 0
  outer loop
   vertex 0.0487464 0.011126 0
   vertex 0.0491965 0.00892785 0
   vertex 0.0491965 0.00892785 -0.2
  endloop
 endfacet
 facet normal 0.979675 0.20059 0
  outer loop
   vertex 0.0487464 0.011126 0
   vertex 0.0491965 0.00892785 -0.2
   vertex 0.0487464 0.011126 -0.2
  endloop
 endfacet
 facet normal 0.96969 0.24434 0
  outer loop
   vertex 0.0487464 0.011126 0
   vertex 0.0487464 0.011126 -0.2
   vertex 0.0481981 0.0133018 -0.2
  endloop
 endfacet
 facet normal -0.24434 -0.96969 -0
  outer loop
   vertex -0.011126 -0.0487464 0
   vertex -0.0133018 -0.0481981 -0.2
   vertex -0.011126 -0.0487464 -0.2
  endloop
 endfacet
 facet normal -0.24434 -0.96969 0
  outer loop
   vertex -0.011126 -0.0487464 0
   vertex -0.0133018 -0.0481981 0
   vertex -0.0133018 -0.0481981 -0.2
  endloop
 endfacet
 facet normal 0.96969 0.24434 0
  outer loop
   vertex 0.0481981 0.0133018 0
   vertex 0.0487464 0.011126 0
   vertex 0.0481981 0.0133018 -0.2
  endloop
 endfacet
 facet normal -0.20059 -0.979675 -0
  outer loop
   vertex -0.00892785 -0.0491965 0
   vertex -0.011126 -0.0487464 -0.2
   vertex -0.00892785 -0.0491965 -0.2
  endloop
 endfacet
 facet normal -0.20059 -0.979675 0
  outer loop
   vertex -0.00892785 -0.0491965 0
   vertex -0.011126 -0.0487464 0
   vertex -0.011126 -0.0487464 -0.2
  endloop
 endfacet
 facet normal 0.957751 0.287599 0
  outer loop
   vertex 0.0475528 0.0154508 0
   vertex 0.0481981 0.0133018 0
   vertex 0.0481981 0.0133018 -0.2
  endloop
 endfacet
 facet normal 0.957751 0.287599 0
  outer loop
   vertex 0.0475528 0.0154508 0
   vertex 0.0481981 0.0133018 -0.2
   vertex 0.0475528 0.0154508 -0.2
  endloop
 endfacet
 facet normal -0.156435 -0.987688 -0
  outer loop
   vertex -0.00671166 -0.0495475 0
   vertex -0.00892785 -0.0491965 -0.2
   vertex -0.00671166 -0.0495475 -0.2
  endloop
 endfacet
 facet normal -0.156435 -0.987688 0
  outer loop
   vertex -0.00671166 -0.0495475 0
   vertex -0.00892785 -0.0491965 0
   vertex -0.00892785 -0.0491965 -0.2
  endloop
 endfacet
 facet normal 0.943883 0.330279 0
  outer loop
   vertex 0.0468117 0.0175687 0
   vertex 0.0475528 0.0154508 0
   vertex 0.0475528 0.0154508 -0.2
  endloop
 endfacet
 facet normal 0.943883 0.330279 0
  outer loop
   vertex 0.0468117 0.0175687 0
   vertex 0.0475528 0.0154508 -0.2
   vertex 0.0468117 0.0175687 -0.2
  endloop
 endfacet
 facet normal -0.111964 -0.993712 -0
  outer loop
   vertex -0.00448197 -0.0497987 0
   vertex -0.00671166 -0.0495475 -0.2
   vertex -0.00448197 -0.0497987 -0.2
  endloop
 endfacet
 facet normal -0.0672696 -0.997735 -0
  outer loop
   vertex -0.00448197 -0.0497987 0
   vertex -0.00448197 -0.0497987 -0.2
   vertex -0.00224324 -0.0499497 -0.2
  endloop
 endfacet
 facet normal -0.111964 -0.993712 0
  outer loop
   vertex -0.00448197 -0.0497987 0
   vertex -0.00671166 -0.0495475 0
   vertex -0.00671166 -0.0495475 -0.2
  endloop
 endfacet
 facet normal 0.928115 0.372295 0
  outer loop
   vertex 0.0459764 0.0196513 0
   vertex 0.0468117 0.0175687 0
   vertex 0.0468117 0.0175687 -0.2
  endloop
 endfacet
 facet normal 0.928115 0.372295 0
  outer loop
   vertex 0.0459764 0.0196513 0
   vertex 0.0468117 0.0175687 -0.2
   vertex 0.0459764 0.0196513 -0.2
  endloop
 endfacet
 facet normal 0.910478 0.413558 0
  outer loop
   vertex 0.0459764 0.0196513 0
   vertex 0.0459764 0.0196513 -0.2
   vertex 0.0450484 0.0216942 -0.2
  endloop
 endfacet
 facet normal -0.0672696 -0.997735 -0
  outer loop
   vertex -0.00224324 -0.0499497 0
   vertex -0.00448197 -0.0497987 0
   vertex -0.00224324 -0.0499497 -0.2
  endloop
 endfacet
 facet normal 0.910478 0.413558 0
  outer loop
   vertex 0.0450484 0.0216942 0
   vertex 0.0459764 0.0196513 0
   vertex 0.0450484 0.0216942 -0.2
  endloop
 endfacet
 facet normal -0.0224379 -0.999748 -0
  outer loop
   vertex -9.18485e-18 -0.05 0
   vertex -0.00224324 -0.0499497 -0.2
   vertex -9.18485e-18 -0.05 -0.2
  endloop
 endfacet
 facet normal -0.0224379 -0.999748 0
  outer loop
   vertex -9.18485e-18 -0.05 0
   vertex -0.00224324 -0.0499497 0
   vertex -0.00224324 -0.0499497 -0.2
  endloop
 endfacet
 facet normal 0.891007 0.45399 0
  outer loop
   vertex 0.0440298 0.0236934 0
   vertex 0.0450484 0.0216942 0
   vertex 0.0450484 0.0216942 -0.2
  endloop
 endfacet
 facet normal 0.891007 0.45399 0
  outer loop
   vertex 0.0440298 0.0236934 0
   vertex 0.0450484 0.0216942 -0.2
   vertex 0.0440298 0.0236934 -0.2
  endloop
 endfacet
 facet normal 0.0224379 -0.999748 0
  outer loop
   vertex 0.00224324 -0.0499497 0
   vertex -9.18485e-18 -0.05 0
   vertex -9.18485e-18 -0.05 -0.2
  endloop
 endfacet
 facet normal 0.0224379 -0.999748 0
  outer loop
   vertex 0.00224324 -0.0499497 0
   vertex -9.18485e-18 -0.05 -0.2
   vertex 0.00224324 -0.0499497 -0.2
  endloop
 endfacet
 facet normal 0.869741 0.493509 0
  outer loop
   vertex 0.0429224 0.025645 0
   vertex 0.0440298 0.0236934 0
   vertex 0.0440298 0.0236934 -0.2
  endloop
 endfacet
 facet normal 0.0672696 -0.997735 0
  outer loop
   vertex 0.00448197 -0.0497987 0
   vertex 0.00224324 -0.0499497 0
   vertex 0.00224324 -0.0499497 -0.2
  endloop
 endfacet
 facet normal 0.869741 0.493509 0
  outer loop
   vertex 0.0429224 0.025645 0
   vertex 0.0440298 0.0236934 -0.2
   vertex 0.0429224 0.025645 -0.2
  endloop
 endfacet
 facet normal 0.846725 0.532032 0
  outer loop
   vertex 0.0429224 0.025645 0
   vertex 0.0429224 0.025645 -0.2
   vertex 0.0417287 0.0275448 -0.2
  endloop
 endfacet
 facet normal 0.0672696 -0.997735 0
  outer loop
   vertex 0.00448197 -0.0497987 0
   vertex 0.00224324 -0.0499497 -0.2
   vertex 0.00448197 -0.0497987 -0.2
  endloop
 endfacet
 facet normal 0.846725 0.532032 0
  outer loop
   vertex 0.0417287 0.0275448 0
   vertex 0.0429224 0.025645 0
   vertex 0.0417287 0.0275448 -0.2
  endloop
 endfacet
 facet normal 0.111964 -0.993712 0
  outer loop
   vertex 0.00671166 -0.0495475 0
   vertex 0.00448197 -0.0497987 0
   vertex 0.00448197 -0.0497987 -0.2
  endloop
 endfacet
 facet normal 0.111964 -0.993712 0
  outer loop
   vertex 0.00671166 -0.0495475 0
   vertex 0.00448197 -0.0497987 -0.2
   vertex 0.00671166 -0.0495475 -0.2
  endloop
 endfacet
 facet normal 0.822002 0.569484 0
  outer loop
   vertex 0.0404509 0.0293893 0
   vertex 0.0417287 0.0275448 0
   vertex 0.0417287 0.0275448 -0.2
  endloop
 endfacet
 facet normal 0.156435 -0.987688 0
  outer loop
   vertex 0.00892785 -0.0491965 0
   vertex 0.00671166 -0.0495475 0
   vertex 0.00671166 -0.0495475 -0.2
  endloop
 endfacet
 facet normal 0.822002 0.569484 0
  outer loop
   vertex 0.0404509 0.0293893 0
   vertex 0.0417287 0.0275448 -0.2
   vertex 0.0404509 0.0293893 -0.2
  endloop
 endfacet
 facet normal 0.795624 0.60579 0
  outer loop
   vertex 0.0404509 0.0293893 0
   vertex 0.0404509 0.0293893 -0.2
   vertex 0.0390916 0.0311745 -0.2
  endloop
 endfacet
 facet normal 0.156435 -0.987688 0
  outer loop
   vertex 0.00892785 -0.0491965 0
   vertex 0.00671166 -0.0495475 -0.2
   vertex 0.00892785 -0.0491965 -0.2
  endloop
 endfacet
 facet normal 0.20059 -0.979675 0
  outer loop
   vertex 0.00892785 -0.0491965 0
   vertex 0.00892785 -0.0491965 -0.2
   vertex 0.011126 -0.0487464 -0.2
  endloop
 endfacet
 facet normal 0.20059 -0.979675 0
  outer loop
   vertex 0.011126 -0.0487464 0
   vertex 0.00892785 -0.0491965 0
   vertex 0.011126 -0.0487464 -0.2
  endloop
 endfacet
 facet normal 0.795624 0.60579 0
  outer loop
   vertex 0.0390916 0.0311745 0
   vertex 0.0404509 0.0293893 0
   vertex 0.0390916 0.0311745 -0.2
  endloop
 endfacet
 facet normal 0.24434 -0.96969 0
  outer loop
   vertex 0.0133018 -0.0481981 0
   vertex 0.011126 -0.0487464 0
   vertex 0.011126 -0.0487464 -0.2
  endloop
 endfacet
 facet normal 0.767644 0.640877 0
  outer loop
   vertex 0.0376536 0.0328969 0
   vertex 0.0390916 0.0311745 0
   vertex 0.0390916 0.0311745 -0.2
  endloop
 endfacet
 facet normal 0.24434 -0.96969 0
  outer loop
   vertex 0.0133018 -0.0481981 0
   vertex 0.011126 -0.0487464 -0.2
   vertex 0.0133018 -0.0481981 -0.2
  endloop
 endfacet
 facet normal 0.767644 0.640877 0
  outer loop
   vertex 0.0376536 0.0328969 0
   vertex 0.0390916 0.0311745 -0.2
   vertex 0.0376536 0.0328969 -0.2
  endloop
 endfacet
 facet normal 0.287599 -0.957751 0
  outer loop
   vertex 0.0154508 -0.0475528 0
   vertex 0.0133018 -0.0481981 0
   vertex 0.0133018 -0.0481981 -0.2
  endloop
 endfacet
 facet normal 0.287599 -0.957751 0
  outer loop
   vertex 0.0154508 -0.0475528 0
   vertex 0.0133018 -0.0481981 -0.2
   vertex 0.0154508 -0.0475528 -0.2
  endloop
 endfacet
 facet normal 0.738119 0.67467 0
  outer loop
   vertex 0.0361397 0.0345531 0
   vertex 0.0376536 0.0328969 0
   vertex 0.0376536 0.0328969 -0.2
  endloop
 endfacet
 facet normal 0.738119 0.67467 0
  outer loop
   vertex 0.0361397 0.0345531 0
   vertex 0.0376536 0.0328969 -0.2
   vertex 0.0361397 0.0345531 -0.2
  endloop
 endfacet
 facet normal 0.707107 0.707107 0
  outer loop
   vertex 0.0361397 0.0345531 0
   vertex 0.0361397 0.0345531 -0.2
   vertex 0.0345531 0.0361397 -0.2
  endloop
 endfacet
 facet normal 0.330279 -0.943883 0
  outer loop
   vertex 0.0175687 -0.0468117 0
   vertex 0.0154508 -0.0475528 0
   vertex 0.0154508 -0.0475528 -0.2
  endloop
 endfacet
 facet normal 0.330279 -0.943883 0
  outer loop
   vertex 0.0175687 -0.0468117 0
   vertex 0.0154508 -0.0475528 -0.2
   vertex 0.0175687 -0.0468117 -0.2
  endloop
 endfacet
 facet normal 0.707107 0.707107 0
  outer loop
   vertex 0.0345531 0.0361397 0
   vertex 0.0361397 0.0345531 0
   vertex 0.0345531 0.0361397 -0.2
  endloop
 endfacet
 facet normal 0.372295 -0.928115 0
  outer loop
   vertex 0.0196513 -0.0459764 0
   vertex 0.0175687 -0.0468117 0
   vertex 0.0175687 -0.0468117 -0.2
  endloop
 endfacet
 facet normal 0.372295 -0.928115 0
  outer loop
   vertex 0.0196513 -0.0459764 0
   vertex 0.0175687 -0.0468117 -0.2
   vertex 0.0196513 -0.0459764 -0.2
  endloop
 endfacet
 facet normal 0.67467 0.738119 0
  outer loop
   vertex 0.0328969 0.0376536 0
   vertex 0.0345531 0.0361397 -0.2
   vertex 0.0328969 0.0376536 -0.2
  endloop
 endfacet
 facet normal 0.67467 0.738119 0
  outer loop
   vertex 0.0328969 0.0376536 0
   vertex 0.0345531 0.0361397 0
   vertex 0.0345531 0.0361397 -0.2
  endloop
 endfacet
 facet normal 0.413558 -0.910478 0
  outer loop
   vertex 0.0216942 -0.0450484 0
   vertex 0.0196513 -0.0459764 0
   vertex 0.0196513 -0.0459764 -0.2
  endloop
 endfacet
 facet normal 0.413558 -0.910478 0
  outer loop
   vertex 0.0216942 -0.0450484 0
   vertex 0.0196513 -0.0459764 -0.2
   vertex 0.0216942 -0.0450484 -0.2
  endloop
 endfacet
 facet normal 0.45399 -0.891007 0
  outer loop
   vertex 0.0216942 -0.0450484 0
   vertex 0.0216942 -0.0450484 -0.2
   vertex 0.0236934 -0.0440298 -0.2
  endloop
 endfacet
 facet normal 0.640877 0.767644 0
  outer loop
   vertex 0.0311745 0.0390916 0
   vertex 0.0328969 0.0376536 -0.2
   vertex 0.0311745 0.0390916 -0.2
  endloop
 endfacet
 facet normal 0.60579 0.795624 0
  outer loop
   vertex 0.0311745 0.0390916 0
   vertex 0.0311745 0.0390916 -0.2
   vertex 0.0293893 0.0404509 -0.2
  endloop
 endfacet
 facet normal 0.640877 0.767644 0
  outer loop
   vertex 0.0311745 0.0390916 0
   vertex 0.0328969 0.0376536 0
   vertex 0.0328969 0.0376536 -0.2
  endloop
 endfacet
 facet normal 0.45399 -0.891007 0
  outer loop
   vertex 0.0236934 -0.0440298 0
   vertex 0.0216942 -0.0450484 0
   vertex 0.0236934 -0.0440298 -0.2
  endloop
 endfacet
 facet normal 0.60579 0.795624 0
  outer loop
   vertex 0.0293893 0.0404509 0
   vertex 0.0311745 0.0390916 0
   vertex 0.0293893 0.0404509 -0.2
  endloop
 endfacet
 facet normal 0.493509 -0.869741 0
  outer loop
   vertex 0.025645 -0.0429224 0
   vertex 0.0236934 -0.0440298 0
   vertex 0.0236934 -0.0440298 -0.2
  endloop
 endfacet
 facet normal 0.493509 -0.869741 0
  outer loop
   vertex 0.025645 -0.0429224 0
   vertex 0.0236934 -0.0440298 -0.2
   vertex 0.025645 -0.0429224 -0.2
  endloop
 endfacet
 facet normal 0.532032 -0.846725 0
  outer loop
   vertex 0.025645 -0.0429224 0
   vertex 0.025645 -0.0429224 -0.2
   vertex 0.0275448 -0.0417287 -0.2
  endloop
 endfacet
 facet normal 0.569484 0.822002 0
  outer loop
   vertex 0.0275448 0.0417287 0
   vertex 0.0293893 0.0404509 -0.2
   vertex 0.0275448 0.0417287 -0.2
  endloop
 endfacet
 facet normal 0.569484 0.822002 0
  outer loop
   vertex 0.0275448 0.0417287 0
   vertex 0.0293893 0.0404509 0
   vertex 0.0293893 0.0404509 -0.2
  endloop
 endfacet
 facet normal 0.532032 -0.846725 0
  outer loop
   vertex 0.0275448 -0.0417287 0
   vertex 0.025645 -0.0429224 0
   vertex 0.0275448 -0.0417287 -0.2
  endloop
 endfacet
 facet normal 0.532032 0.846725 0
  outer loop
   vertex 0.025645 0.0429224 0
   vertex 0.0275448 0.0417287 -0.2
   vertex 0.025645 0.0429224 -0.2
  endloop
 endfacet
 facet normal 0.493509 0.869741 0
  outer loop
   vertex 0.025645 0.0429224 0
   vertex 0.025645 0.0429224 -0.2
   vertex 0.0236934 0.0440298 -0.2
  endloop
 endfacet
 facet normal 0.532032 0.846725 0
  outer loop
   vertex 0.025645 0.0429224 0
   vertex 0.0275448 0.0417287 0
   vertex 0.0275448 0.0417287 -0.2
  endloop
 endfacet
 facet normal 0.569484 -0.822002 0
  outer loop
   vertex 0.0293893 -0.0404509 0
   vertex 0.0275448 -0.0417287 0
   vertex 0.0275448 -0.0417287 -0.2
  endloop
 endfacet
 facet normal 0.569484 -0.822002 0
  outer loop
   vertex 0.0293893 -0.0404509 0
   vertex 0.0275448 -0.0417287 -0.2
   vertex 0.0293893 -0.0404509 -0.2
  endloop
 endfacet
 facet normal 0.60579 -0.795624 0
  outer loop
   vertex 0.0293893 -0.0404509 0
   vertex 0.0293893 -0.0404509 -0.2
   vertex 0.0311745 -0.0390916 -0.2
  endloop
 endfacet
 facet normal 0.493509 0.869741 0
  outer loop
   vertex 0.0236934 0.0440298 0
   vertex 0.025645 0.0429224 0
   vertex 0.0236934 0.0440298 -0.2
  endloop
 endfacet
 facet normal 0.60579 -0.795624 0
  outer loop
   vertex 0.0311745 -0.0390916 0
   vertex 0.0293893 -0.0404509 0
   vertex 0.0311745 -0.0390916 -0.2
  endloop
 endfacet
 facet normal 0.45399 0.891007 0
  outer loop
   vertex 0.0216942 0.0450484 0
   vertex 0.0236934 0.0440298 -0.2
   vertex 0.0216942 0.0450484 -0.2
  endloop
 endfacet
 facet normal 0.640877 -0.767644 0
  outer loop
   vertex 0.0328969 -0.0376536 0
   vertex 0.0311745 -0.0390916 -0.2
   vertex 0.0328969 -0.0376536 -0.2
  endloop
 endfacet
 facet normal 0.45399 0.891007 0
  outer loop
   vertex 0.0216942 0.0450484 0
   vertex 0.0236934 0.0440298 0
   vertex 0.0236934 0.0440298 -0.2
  endloop
 endfacet
 facet normal 0.640877 -0.767644 0
  outer loop
   vertex 0.0328969 -0.0376536 0
   vertex 0.0311745 -0.0390916 0
   vertex 0.0311745 -0.0390916 -0.2
  endloop
 endfacet
 facet normal 0.67467 -0.738119 0
  outer loop
   vertex 0.0345531 -0.0361397 0
   vertex 0.0328969 -0.0376536 -0.2
   vertex 0.0345531 -0.0361397 -0.2
  endloop
 endfacet
 facet normal 0.413558 0.910478 0
  outer loop
   vertex 0.0196513 0.0459764 0
   vertex 0.0216942 0.0450484 -0.2
   vertex 0.0196513 0.0459764 -0.2
  endloop
 endfacet
 facet normal 0.707107 -0.707107 0
  outer loop
   vertex 0.0345531 -0.0361397 0
   vertex 0.0345531 -0.0361397 -0.2
   vertex 0.0361397 -0.0345531 -0.2
  endloop
 endfacet
 facet normal 0.372295 0.928115 0
  outer loop
   vertex 0.0196513 0.0459764 0
   vertex 0.0196513 0.0459764 -0.2
   vertex 0.0175687 0.0468117 -0.2
  endloop
 endfacet
 facet normal 0.67467 -0.738119 0
  outer loop
   vertex 0.0345531 -0.0361397 0
   vertex 0.0328969 -0.0376536 0
   vertex 0.0328969 -0.0376536 -0.2
  endloop
 endfacet
 facet normal 0.413558 0.910478 0
  outer loop
   vertex 0.0196513 0.0459764 0
   vertex 0.0216942 0.0450484 0
   vertex 0.0216942 0.0450484 -0.2
  endloop
 endfacet
 facet normal 0.707107 -0.707107 0
  outer loop
   vertex 0.0361397 -0.0345531 0
   vertex 0.0345531 -0.0361397 0
   vertex 0.0361397 -0.0345531 -0.2
  endloop
 endfacet
 facet normal 0.372295 0.928115 0
  outer loop
   vertex 0.0175687 0.0468117 0
   vertex 0.0196513 0.0459764 0
   vertex 0.0175687 0.0468117 -0.2
  endloop
 endfacet
 facet normal 0.738119 -0.67467 0
  outer loop
   vertex 0.0376536 -0.0328969 0
   vertex 0.0361397 -0.0345531 -0.2
   vertex 0.0376536 -0.0328969 -0.2
  endloop
 endfacet
 facet normal 0.767644 -0.640877 0
  outer loop
   vertex 0.0376536 -0.0328969 0
   vertex 0.0376536 -0.0328969 -0.2
   vertex 0.0390916 -0.0311745 -0.2
  endloop
 endfacet
 facet normal 0.330279 0.943883 0
  outer loop
   vertex 0.0154508 0.0475528 0
   vertex 0.0175687 0.0468117 -0.2
   vertex 0.0154508 0.0475528 -0.2
  endloop
 endfacet
 facet normal 0.738119 -0.67467 0
  outer loop
   vertex 0.0376536 -0.0328969 0
   vertex 0.0361397 -0.0345531 0
   vertex 0.0361397 -0.0345531 -0.2
  endloop
 endfacet
 facet normal 0.330279 0.943883 0
  outer loop
   vertex 0.0154508 0.0475528 0
   vertex 0.0175687 0.0468117 0
   vertex 0.0175687 0.0468117 -0.2
  endloop
 endfacet
 facet normal 0.767644 -0.640877 0
  outer loop
   vertex 0.0390916 -0.0311745 0
   vertex 0.0376536 -0.0328969 0
   vertex 0.0390916 -0.0311745 -0.2
  endloop
 endfacet
 facet normal 0.287599 0.957751 0
  outer loop
   vertex 0.0133018 0.0481981 0
   vertex 0.0154508 0.0475528 -0.2
   vertex 0.0133018 0.0481981 -0.2
  endloop
 endfacet
 facet normal 0.287599 0.957751 0
  outer loop
   vertex 0.0133018 0.0481981 0
   vertex 0.0154508 0.0475528 0
   vertex 0.0154508 0.0475528 -0.2
  endloop
 endfacet
 facet normal 0.795624 -0.60579 0
  outer loop
   vertex 0.0404509 -0.0293893 0
   vertex 0.0390916 -0.0311745 -0.2
   vertex 0.0404509 -0.0293893 -0.2
  endloop
 endfacet
 facet normal 0.795624 -0.60579 0
  outer loop
   vertex 0.0404509 -0.0293893 0
   vertex 0.0390916 -0.0311745 0
   vertex 0.0390916 -0.0311745 -0.2
  endloop
 endfacet
 facet normal 0.24434 0.96969 0
  outer loop
   vertex 0.011126 0.0487464 0
   vertex 0.0133018 0.0481981 -0.2
   vertex 0.011126 0.0487464 -0.2
  endloop
 endfacet
 facet normal 0.24434 0.96969 0
  outer loop
   vertex 0.011126 0.0487464 0
   vertex 0.0133018 0.0481981 0
   vertex 0.0133018 0.0481981 -0.2
  endloop
 endfacet
 facet normal 0.822002 -0.569484 0
  outer loop
   vertex 0.0417287 -0.0275448 0
   vertex 0.0404509 -0.0293893 -0.2
   vertex 0.0417287 -0.0275448 -0.2
  endloop
 endfacet
 facet normal 0.846725 -0.532032 0
  outer loop
   vertex 0.0417287 -0.0275448 0
   vertex 0.0417287 -0.0275448 -0.2
   vertex 0.0429224 -0.025645 -0.2
  endloop
 endfacet
 facet normal 0.822002 -0.569484 0
  outer loop
   vertex 0.0417287 -0.0275448 0
   vertex 0.0404509 -0.0293893 0
   vertex 0.0404509 -0.0293893 -0.2
  endloop
 endfacet
 facet normal 0.20059 0.979675 0
  outer loop
   vertex 0.00892785 0.0491965 0
   vertex 0.011126 0.0487464 0
   vertex 0.011126 0.0487464 -0.2
  endloop
 endfacet
 facet normal 0.20059 0.979675 0
  outer loop
   vertex 0.00892785 0.0491965 0
   vertex 0.011126 0.0487464 -0.2
   vertex 0.00892785 0.0491965 -0.2
  endloop
 endfacet
 facet normal 0.156435 0.987688 0
  outer loop
   vertex 0.00892785 0.0491965 0
   vertex 0.00892785 0.0491965 -0.2
   vertex 0.00671166 0.0495475 -0.2
  endloop
 endfacet
 facet normal 0.846725 -0.532032 0
  outer loop
   vertex 0.0429224 -0.025645 0
   vertex 0.0417287 -0.0275448 0
   vertex 0.0429224 -0.025645 -0.2
  endloop
 endfacet
 facet normal 0.156435 0.987688 0
  outer loop
   vertex 0.00671166 0.0495475 0
   vertex 0.00892785 0.0491965 0
   vertex 0.00671166 0.0495475 -0.2
  endloop
 endfacet
 facet normal 0.869741 -0.493509 0
  outer loop
   vertex 0.0440298 -0.0236934 0
   vertex 0.0429224 -0.025645 -0.2
   vertex 0.0440298 -0.0236934 -0.2
  endloop
 endfacet
 facet normal 0.891007 -0.45399 0
  outer loop
   vertex 0.0440298 -0.0236934 0
   vertex 0.0440298 -0.0236934 -0.2
   vertex 0.0450484 -0.0216942 -0.2
  endloop
 endfacet
 facet normal 0.869741 -0.493509 0
  outer loop
   vertex 0.0440298 -0.0236934 0
   vertex 0.0429224 -0.025645 0
   vertex 0.0429224 -0.025645 -0.2
  endloop
 endfacet
 facet normal 0.891007 -0.45399 0
  outer loop
   vertex 0.0450484 -0.0216942 0
   vertex 0.0440298 -0.0236934 0
   vertex 0.0450484 -0.0216942 -0.2
  endloop
 endfacet
 facet normal 0.111964 0.993712 0
  outer loop
   vertex 0.00448197 0.0497987 0
   vertex 0.00671166 0.0495475 0
   vertex 0.00671166 0.0495475 -0.2
  endloop
 endfacet
 facet normal 0.111964 0.993712 0
  outer loop
   vertex 0.00448197 0.0497987 0
   vertex 0.00671166 0.0495475 -0.2
   vertex 0.00448197 0.0497987 -0.2
  endloop
 endfacet
 facet normal 0.910478 -0.413558 0
  outer loop
   vertex 0.0459764 -0.0196513 0
   vertex 0.0450484 -0.0216942 -0.2
   vertex 0.0459764 -0.0196513 -0.2
  endloop
 endfacet
 facet normal 0.0672696 0.997735 0
  outer loop
   vertex 0.00224324 0.0499497 0
   vertex 0.00448197 0.0497987 0
   vertex 0.00448197 0.0497987 -0.2
  endloop
 endfacet
 facet normal 0.928115 -0.372295 0
  outer loop
   vertex 0.0459764 -0.0196513 0
   vertex 0.0459764 -0.0196513 -0.2
   vertex 0.0468117 -0.0175687 -0.2
  endloop
 endfacet
 facet normal 0.0672696 0.997735 0
  outer loop
   vertex 0.00224324 0.0499497 0
   vertex 0.00448197 0.0497987 -0.2
   vertex 0.00224324 0.0499497 -0.2
  endloop
 endfacet
 facet normal 0.0224379 0.999748 0
  outer loop
   vertex 0.00224324 0.0499497 0
   vertex 0.00224324 0.0499497 -0.2
   vertex 3.06162e-18 0.05 -0.2
  endloop
 endfacet
 facet normal 0.910478 -0.413558 0
  outer loop
   vertex 0.0459764 -0.0196513 0
   vertex 0.0450484 -0.0216942 0
   vertex 0.0450484 -0.0216942 -0.2
  endloop
 endfacet
 facet normal 0.928115 -0.372295 0
  outer loop
   vertex 0.0468117 -0.0175687 0
   vertex 0.0459764 -0.0196513 0
   vertex 0.0468117 -0.0175687 -0.2
  endloop
 endfacet
 facet normal 0.0224379 0.999748 0
  outer loop
   vertex 3.06162e-18 0.05 0
   vertex 0.00224324 0.0499497 0
   vertex 3.06162e-18 0.05 -0.2
  endloop
 endfacet
 facet normal 0.943883 -0.330279 0
  outer loop
   vertex 0.0475528 -0.0154508 0
   vertex 0.0468117 -0.0175687 0
   vertex 0.0468117 -0.0175687 -0.2
  endloop
 endfacet
 facet normal 0.943883 -0.330279 0
  outer loop
   vertex 0.0475528 -0.0154508 0
   vertex 0.0468117 -0.0175687 -0.2
   vertex 0.0475528 -0.0154508 -0.2
  endloop
 endfacet
 facet normal -0.0224379 0.999748 0
  outer loop
   vertex -0.00224324 0.0499497 0
   vertex 3.06162e-18 0.05 0
   vertex 3.06162e-18 0.05 -0.2
  endloop
 endfacet
 facet normal -0.0224379 0.999748 0
  outer loop
   vertex -0.00224324 0.0499497 0
   vertex 3.06162e-18 0.05 -0.2
   vertex -0.00224324 0.0499497 -0.2
  endloop
 endfacet
 facet normal 0.957751 -0.287599 0
  outer loop
   vertex 0.0481981 -0.0133018 0
   vertex 0.0475528 -0.0154508 0
   vertex 0.0475528 -0.0154508 -0.2
  endloop
 endfacet
 facet normal 0.957751 -0.287599 0
  outer loop
   vertex 0.0481981 -0.0133018 0
   vertex 0.0475528 -0.0154508 -0.2
   vertex 0.0481981 -0.0133018 -0.2
  endloop
 endfacet
 facet normal 0.96969 -0.24434 0
  outer loop
   vertex 0.0481981 -0.0133018 0
   vertex 0.0481981 -0.0133018 -0.2
   vertex 0.0487464 -0.011126 -0.2
  endloop
 endfacet
 facet normal -0.0672696 0.997735 0
  outer loop
   vertex -0.00448197 0.0497987 0
   vertex -0.00224324 0.0499497 0
   vertex -0.00224324 0.0499497 -0.2
  endloop
 endfacet
 facet normal -0.0672696 0.997735 0
  outer loop
   vertex -0.00448197 0.0497987 0
   vertex -0.00224324 0.0499497 -0.2
   vertex -0.00448197 0.0497987 -0.2
  endloop
 endfacet
 facet normal -0.111964 0.993712 0
  outer loop
   vertex -0.00448197 0.0497987 0
   vertex -0.00448197 0.0497987 -0.2
   vertex -0.00671166 0.0495475 -0.2
  endloop
 endfacet
 facet normal 0.96969 -0.24434 0
  outer loop
   vertex 0.0487464 -0.011126 0
   vertex 0.0481981 -0.0133018 0
   vertex 0.0487464 -0.011126 -0.2
  endloop
 endfacet
 facet normal -0.111964 0.993712 0
  outer loop
   vertex -0.00671166 0.0495475 0
   vertex -0.00448197 0.0497987 0
   vertex -0.00671166 0.0495475 -0.2
  endloop
 endfacet
 facet normal 0.979675 -0.20059 0
  outer loop
   vertex 0.0491965 -0.00892785 0
   vertex 0.0487464 -0.011126 0
   vertex 0.0487464 -0.011126 -0.2
  endloop
 endfacet
 facet normal 0.979675 -0.20059 0
  outer loop
   vertex 0.0491965 -0.00892785 0
   vertex 0.0487464 -0.011126 -0.2
   vertex 0.0491965 -0.00892785 -0.2
  endloop
 endfacet
 facet normal 0.987688 -0.156435 0
  outer loop
   vertex 0.0491965 -0.00892785 0
   vertex 0.0491965 -0.00892785 -0.2
   vertex 0.0495475 -0.00671166 -0.2
  endloop
 endfacet
 facet normal -0.156435 0.987688 0
  outer loop
   vertex -0.00892785 0.0491965 0
   vertex -0.00671166 0.0495475 0
   vertex -0.00671166 0.0495475 -0.2
  endloop
 endfacet
 facet normal -0.156435 0.987688 0
  outer loop
   vertex -0.00892785 0.0491965 0
   vertex -0.00671166 0.0495475 -0.2
   vertex -0.00892785 0.0491965 -0.2
  endloop
 endfacet
 facet normal 0.987688 -0.156435 0
  outer loop
   vertex 0.0495475 -0.00671166 0
   vertex 0.0491965 -0.00892785 0
   vertex 0.0495475 -0.00671166 -0.2
  endloop
 endfacet
 facet normal -0.20059 0.979675 0
  outer loop
   vertex -0.011126 0.0487464 0
   vertex -0.00892785 0.0491965 0
   vertex -0.00892785 0.0491965 -0.2
  endloop
 endfacet
 facet normal -0.20059 0.979675 0
  outer loop
   vertex -0.011126 0.0487464 0
   vertex -0.00892785 0.0491965 -0.2
   vertex -0.011126 0.0487464 -0.2
  endloop
 endfacet
 facet normal 0.993712 -0.111964 0
  outer loop
   vertex 0.0497987 -0.00448197 0
   vertex 0.0495475 -0.00671166 0
   vertex 0.0495475 -0.00671166 -0.2
  endloop
 endfacet
 facet normal -0.24434 0.96969 0
  outer loop
   vertex -0.011126 0.0487464 0
   vertex -0.011126 0.0487464 -0.2
   vertex -0.0133018 0.0481981 -0.2
  endloop
 endfacet
 facet normal 0.993712 -0.111964 0
  outer loop
   vertex 0.0497987 -0.00448197 0
   vertex 0.0495475 -0.00671166 -0.2
   vertex 0.0497987 -0.00448197 -0.2
  endloop
 endfacet
 facet normal 0.997735 -0.0672696 0
  outer loop
   vertex 0.0499497 -0.00224324 0
   vertex 0.0497987 -0.00448197 0
   vertex 0.0497987 -0.00448197 -0.2
  endloop
 endfacet
 facet normal 0.997735 -0.0672696 0
  outer loop
   vertex 0.0499497 -0.00224324 0
   vertex 0.0497987 -0.00448197 -0.2
   vertex 0.0499497 -0.00224324 -0.2
  endloop
 endfacet
 facet normal -0.24434 0.96969 0
  outer loop
   vertex -0.0133018 0.0481981 0
   vertex -0.011126 0.0487464 0
   vertex -0.0133018 0.0481981 -0.2
  endloop
 endfacet
 facet normal 0.999748 -0.0224379 0
  outer loop
   vertex 0.0499497 -0.00224324 0
   vertex 0.0499497 -0.00224324 -0.2
   vertex 0.05 -1.22465e-17 -0.2
  endloop
 endfacet
 facet normal 0.999748 -0.0224379 0
  outer loop
   vertex 0.05 -1.22465e-17 0
   vertex 0.0499497 -0.00224324 0
   vertex 0.05 -1.22465e-17 -0.2
  endloop
 endfacet
 facet normal -0.287599 0.957751 0
  outer loop
   vertex -0.0154508 0.0475528 0
   vertex -0.0133018 0.0481981 0
   vertex -0.0133018 0.0481981 -0.2
  endloop
 endfacet
 facet normal -0.287599 0.957751 0
  outer loop
   vertex -0.0154508 0.0475528 0
   vertex -0.0133018 0.0481981 -0.2
   vertex -0.0154508 0.0475528 -0.2
  endloop
 endfacet
 facet normal -0.330279 0.943883 0
  outer loop
   vertex -0.0175687 0.0468117 0
   vertex -0.0154508 0.0475528 0
   vertex -0.0154508 0.0475528 -0.2
  endloop
 endfacet
 facet normal -0.330279 0.943883 0
  outer loop
   vertex -0.0175687 0.0468117 0
   vertex -0.0154508 0.0475528 -0.2
   vertex -0.0175687 0.0468117 -0.2
  endloop
 endfacet
 facet normal -0.372295 0.928115 0
  outer loop
   vertex -0.0175687 0.0468117 0
   vertex -0.0175687 0.0468117 -0.2
   vertex -0.0196513 0.0459764 -0.2
  endloop
 endfacet
 facet normal -0.372295 0.928115 0
  outer loop
   vertex -0.0196513 0.0459764 0
   vertex -0.0175687 0.0468117 0
   vertex -0.0196513 0.0459764 -0.2
  endloop
 endfacet
 facet normal -0.413558 0.910478 0
  outer loop
   vertex -0.0216942 0.0450484 0
   vertex -0.0196513 0.0459764 0
   vertex -0.0196513 0.0459764 -0.2
  endloop
 endfacet
 facet normal -0.413558 0.910478 0
  outer loop
   vertex -0.0216942 0.0450484 0
   vertex -0.0196513 0.0459764 -0.2
   vertex -0.0216942 0.0450484 -0.2
  endloop
 endfacet
 facet normal -0.45399 0.891007 0
  outer loop
   vertex -0.0236934 0.0440298 0
   vertex -0.0216942 0.0450484 0
   vertex -0.0216942 0.0450484 -0.2
  endloop
 endfacet
 facet normal -0.45399 0.891007 0
  outer loop
   vertex -0.0236934 0.0440298 0
   vertex -0.0216942 0.0450484 -0.2
   vertex -0.0236934 0.0440298 -0.2
  endloop
 endfacet
 facet normal -0.493509 0.869741 0
  outer loop
   vertex -0.025645 0.0429224 0
   vertex -0.0236934 0.0440298 0
   vertex -0.0236934 0.0440298 -0.2
  endloop
 endfacet
 facet normal -0.493509 0.869741 0
  outer loop
   vertex -0.025645 0.0429224 0
   vertex -0.0236934 0.0440298 -0.2
   vertex -0.025645 0.0429224 -0.2
  endloop
 endfacet
 facet normal -0.532032 0.846725 0
  outer loop
   vertex -0.025645 0.0429224 0
   vertex -0.025645 0.0429224 -0.2
   vertex -0.0275448 0.0417287 -0.2
  endloop
 endfacet
 facet normal -0.532032 0.846725 0
  outer loop
   vertex -0.0275448 0.0417287 0
   vertex -0.025645 0.0429224 0
   vertex -0.0275448 0.0417287 -0.2
  endloop
 endfacet
 facet normal -0.569484 0.822002 0
  outer loop
   vertex -0.0293893 0.0404509 0
   vertex -0.0275448 0.0417287 0
   vertex -0.0275448 0.0417287 -0.2
  endloop
 endfacet
 facet normal -0.569484 0.822002 0
  outer loop
   vertex -0.0293893 0.0404509 0
   vertex -0.0275448 0.0417287 -0.2
   vertex -0.0293893 0.0404509 -0.2
  endloop
 endfacet
 facet normal -0.60579 0.795624 0
  outer loop
   vertex -0.0311745 0.0390916 0
   vertex -0.0293893 0.0404509 0
   vertex -0.0293893 0.0404509 -0.2
  endloop
 endfacet
 facet normal -0.60579 0.795624 0
  outer loop
   vertex -0.0311745 0.0390916 0
   vertex -0.0293893 0.0404509 -0.2
   vertex -0.0311745 0.0390916 -0.2
  endloop
 endfacet
 facet normal -0.640877 0.767644 0
  outer loop
   vertex -0.0311745 0.0390916 0
   vertex -0.0311745 0.0390916 -0.2
   vertex -0.0328969 0.0376536 -0.2
  endloop
 endfacet
 facet normal -0.640877 0.767644 0
  outer loop
   vertex -0.0328969 0.0376536 0
   vertex -0.0311745 0.0390916 0
   vertex -0.0328969 0.0376536 -0.2
  endloop
 endfacet
 facet normal -0.67467 0.738119 0
  outer loop
   vertex -0.0345531 0.0361397 0
   vertex -0.0328969 0.0376536 -0.2
   vertex -0.0345531 0.0361397 -0.2
  endloop
 endfacet
 facet normal -0.67467 0.738119 0
  outer loop
   vertex -0.0345531 0.0361397 0
   vertex -0.0328969 0.0376536 0
   vertex -0.0328969 0.0376536 -0.2
  endloop
 endfacet
 facet normal -0.707107 0.707107 0
  outer loop
   vertex -0.0361397 0.0345531 0
   vertex -0.0345531 0.0361397 -0.2
   vertex -0.0361397 0.0345531 -0.2
  endloop
 endfacet
 facet normal -0.707107 0.707107 0
  outer loop
   vertex -0.0361397 0.0345531 0
   vertex -0.0345531 0.0361397 0
   vertex -0.0345531 0.0361397 -0.2
  endloop
 endfacet
 facet normal -0.738119 0.67467 0
  outer loop
   vertex -0.0361397 0.0345531 0
   vertex -0.0361397 0.0345531 -0.2
   vertex -0.0376536 0.0328969 -0.2
  endloop
 endfacet
 facet normal -0.738119 0.67467 0
  outer loop
   vertex -0.0376536 0.0328969 0
   vertex -0.0361397 0.0345531 0
   vertex -0.0376536 0.0328969 -0.2
  endloop
 endfacet
 facet normal -0.767644 0.640877 0
  outer loop
   vertex -0.0390916 0.0311745 0
   vertex -0.0376536 0.0328969 -0.2
   vertex -0.0390916 0.0311745 -0.2
  endloop
 endfacet
 facet normal -0.767644 0.640877 0
  outer loop
   vertex -0.0390916 0.0311745 0
   vertex -0.0376536 0.0328969 0
   vertex -0.0376536 0.0328969 -0.2
  endloop
 endfacet
 facet normal -0.795624 0.60579 0
  outer loop
   vertex -0.0404509 0.0293893 0
   vertex -0.0390916 0.0311745 0
   vertex -0.0390916 0.0311745 -0.2
  endloop
 endfacet
 facet normal -0.795624 0.60579 0
  outer loop
   vertex -0.0404509 0.0293893 0
   vertex -0.0390916 0.0311745 -0.2
   vertex -0.0404509 0.0293893 -0.2
  endloop
 endfacet
 facet normal -0.822002 0.569484 0
  outer loop
   vertex -0.0404509 0.0293893 0
   vertex -0.0404509 0.0293893 -0.2
   vertex -0.0417287 0.0275448 -0.2
  endloop
 endfacet
 facet normal -0.822002 0.569484 0
  outer loop
   vertex -0.0417287 0.0275448 0
   vertex -0.0404509 0.0293893 0
   vertex -0.0417287 0.0275448 -0.2
  endloop
 endfacet
 facet normal -0.846725 0.532032 0
  outer loop
   vertex -0.0429224 0.025645 0
   vertex -0.0417287 0.0275448 0
   vertex -0.0417287 0.0275448 -0.2
  endloop
 endfacet
 facet normal -0.846725 0.532032 0
  outer loop
   vertex -0.0429224 0.025645 0
   vertex -0.0417287 0.0275448 -0.2
   vertex -0.0429224 0.025645 -0.2
  endloop
 endfacet
 facet normal -0.869741 0.493509 0
  outer loop
   vertex -0.0440298 0.0236934 0
   vertex -0.0429224 0.025645 0
   vertex -0.0429224 0.025645 -0.2
  endloop
 endfacet
 facet normal -0.869741 0.493509 0
  outer loop
   vertex -0.0440298 0.0236934 0
   vertex -0.0429224 0.025645 -0.2
   vertex -0.0440298 0.0236934 -0.2
  endloop
 endfacet
 facet normal -0.910478 0.413558 0
  outer loop
   vertex -0.0450484 0.0216942 0
   vertex -0.0450484 0.0216942 -0.2
   vertex -0.0459764 0.0196513 -0.2
  endloop
 endfacet
 facet normal -0.891007 0.45399 0
  outer loop
   vertex -0.0450484 0.0216942 0
   vertex -0.0440298 0.0236934 0
   vertex -0.0440298 0.0236934 -0.2
  endloop
 endfacet
 facet normal -0.891007 0.45399 0
  outer loop
   vertex -0.0450484 0.0216942 0
   vertex -0.0440298 0.0236934 -0.2
   vertex -0.0450484 0.0216942 -0.2
  endloop
 endfacet
 facet normal -0.910478 0.413558 0
  outer loop
   vertex -0.0459764 0.0196513 0
   vertex -0.0450484 0.0216942 0
   vertex -0.0459764 0.0196513 -0.2
  endloop
 endfacet
 facet normal -0.928115 0.372295 0
  outer loop
   vertex -0.0468117 0.0175687 0
   vertex -0.0459764 0.0196513 -0.2
   vertex -0.0468117 0.0175687 -0.2
  endloop
 endfacet
 facet normal -0.928115 0.372295 0
  outer loop
   vertex -0.0468117 0.0175687 0
   vertex -0.0459764 0.0196513 0
   vertex -0.0459764 0.0196513 -0.2
  endloop
 endfacet
 facet normal -0.943883 0.330279 0
  outer loop
   vertex -0.0475528 0.0154508 0
   vertex -0.0468117 0.0175687 -0.2
   vertex -0.0475528 0.0154508 -0.2
  endloop
 endfacet
 facet normal -0.943883 0.330279 0
  outer loop
   vertex -0.0475528 0.0154508 0
   vertex -0.0468117 0.0175687 0
   vertex -0.0468117 0.0175687 -0.2
  endloop
 endfacet
 facet normal -0.957751 0.287599 0
  outer loop
   vertex -0.0481981 0.0133018 0
   vertex -0.0475528 0.0154508 -0.2
   vertex -0.0481981 0.0133018 -0.2
  endloop
 endfacet
 facet normal -0.957751 0.287599 0
  outer loop
   vertex -0.0481981 0.0133018 0
   vertex -0.0475528 0.0154508 0
   vertex -0.0475528 0.0154508 -0.2
  endloop
 endfacet
 facet normal -0.96969 0.24434 0
  outer loop
   vertex -0.0487464 0.011126 0
   vertex -0.0481981 0.0133018 -0.2
   vertex -0.0487464 0.011126 -0.2
  endloop
 endfacet
 facet normal -0.96969 0.24434 0
  outer loop
   vertex -0.0487464 0.011126 0
   vertex -0.0481981 0.0133018 0
   vertex -0.0481981 0.0133018 -0.2
  endloop
 endfacet
 facet normal -0.979675 0.20059 0
  outer loop
   vertex -0.0491965 0.00892785 0
   vertex -0.0487464 0.011126 -0.2
   vertex -0.0491965 0.00892785 -0.2
  endloop
 endfacet
 facet normal -0.987688 0.156435 0
  outer loop
   vertex -0.0491965 0.00892785 0
   vertex -0.0491965 0.00892785 -0.2
   vertex -0.0495475 0.00671166 -0.2
  endloop
 endfacet
 facet normal -0.979675 0.20059 0
  outer loop
   vertex -0.0491965 0.00892785 0
   vertex -0.0487464 0.011126 0
   vertex -0.0487464 0.011126 -0.2
  endloop
 endfacet
 facet normal -0.987688 0.156435 0
  outer loop
   vertex -0.0495475 0.00671166 0
   vertex -0.0491965 0.00892785 0
   vertex -0.0495475 0.00671166 -0.2
  endloop
 endfacet
 facet normal -0.993712 0.111964 0
  outer loop
   vertex -0.0497987 0.00448197 0
   vertex -0.0495475 0.00671166 -0.2
   vertex -0.0497987 0.00448197 -0.2
  endloop
 endfacet
 facet normal -0.993712 0.111964 0
  outer loop
   vertex -0.0497987 0.00448197 0
   vertex -0.0495475 0.00671166 0
   vertex -0.0495475 0.00671166 -0.2
  endloop
 endfacet
 facet normal -0.997735 0.0672696 0
  outer loop
   vertex -0.0499497 0.00224324 0
   vertex -0.0497987 0.00448197 -0.2
   vertex -0.0499497 0.00224324 -0.2
  endloop
 endfacet
 facet normal -0.997735 0.0672696 0
  outer loop
   vertex -0.0499497 0.00224324 0
   vertex -0.0497987 0.00448197 0
   vertex -0.0497987 0.00448197 -0.2
  endloop
 endfacet
 facet normal -0.999748 0.0224379 0
  outer loop
   vertex -0.05 6.12323e-18 0
   vertex -0.0499497 0.00224324 -0.2
   vertex -0.05 6.12323e-18 -0.2
  endloop
 endfacet
 facet normal -0.999748 0.0224379 0
  outer loop
   vertex -0.05 6.12323e-18 0
   vertex -0.0499497 0.00224324 0
   vertex -0.0499497 0.00224324 -0.2
  endloop
 endfacet
 facet normal -0.999748 -0.0224379 -0
  outer loop
   vertex -0.0499497 -0.00224324 0
   vertex -0.05 6.12323e-18 -0.2
   vertex -0.0499497 -0.00224324 -0.2
  endloop
 endfacet
 facet normal -0.999748 -0.0224379 0
  outer loop
   vertex -0.0499497 -0.00224324 0
   vertex -0.05 6.12323e-18 0
   vertex -0.05 6.12323e-18 -0.2
  endloop
 endfacet
 facet normal -0.997735 -0.0672696 -0
  outer loop
   vertex -0.0497987 -0.00448197 0
   vertex -0.0499497 -0.00224324 -0.2
   vertex -0.0497987 -0.00448197 -0.2
  endloop
 endfacet
 facet normal -0.993712 -0.111964 -0
  outer loop
   vertex -0.0497987 -0.00448197 0
   vertex -0.0497987 -0.00448197 -0.2
   vertex -0.0495475 -0.00671166 -0.2
  endloop
 endfacet
 facet normal -0.997735 -0.0672696 0
  outer loop
   vertex -0.0497987 -0.00448197 0
   vertex -0.0499497 -0.00224324 0
   vertex -0.0499497 -0.00224324 -0.2
  endloop
 endfacet
 facet normal -0.993712 -0.111964 -0
  outer loop
   vertex -0.0495475 -0.00671166 0
   vertex -0.0497987 -0.00448197 0
   vertex -0.0495475 -0.00671166 -0.2
  endloop
 endfacet
 facet normal -0.987688 -0.156435 -0
  outer loop
   vertex -0.0491965 -0.00892785 0
   vertex -0.0495475 -0.00671166 -0.2
   vertex -0.0491965 -0.00892785 -0.2
  endloop
 endfacet
 facet normal -0.987688 -0.156435 0
  outer loop
   vertex -0.0491965 -0.00892785 0
   vertex -0.0495475 -0.00671166 0
   vertex -0.0495475 -0.00671166 -0.2
  endloop
 endfacet
 facet normal -0.979675 -0.20059 -0
  outer loop
   vertex -0.0487464 -0.011126 0
   vertex -0.0491965 -0.00892785 -0.2
   vertex -0.0487464 -0.011126 -0.2
  endloop
 endfacet
 facet normal -0.979675 -0.20059 0
  outer loop
   vertex -0.0487464 -0.011126 0
   vertex -0.0491965 -0.00892785 0
   vertex -0.0491965 -0.00892785 -0.2
  endloop
 endfacet
 facet normal -0.96969 -0.24434 -0
  outer loop
   vertex -0.0481981 -0.0133018 0
   vertex -0.0487464 -0.011126 -0.2
   vertex -0.0481981 -0.0133018 -0.2
  endloop
 endfacet
 facet normal -0.96969 -0.24434 0
  outer loop
   vertex -0.0481981 -0.0133018 0
   vertex -0.0487464 -0.011126 0
   vertex -0.0487464 -0.011126 -0.2
  endloop
 endfacet
 facet normal -0.957751 -0.287599 -0
  outer loop
   vertex -0.0475528 -0.0154508 0
   vertex -0.0481981 -0.0133018 -0.2
   vertex -0.0475528 -0.0154508 -0.2
  endloop
 endfacet
 facet normal -0.957751 -0.287599 0
  outer loop
   vertex -0.0475528 -0.0154508 0
   vertex -0.0481981 -0.0133018 0
   vertex -0.0481981 -0.0133018 -0.2
  endloop
 endfacet
 facet normal -0.943883 -0.330279 -0
  outer loop
   vertex -0.0468117 -0.0175687 0
   vertex -0.0475528 -0.0154508 -0.2
   vertex -0.0468117 -0.0175687 -0.2
  endloop
 endfacet
 facet normal -0.928115 -0.372295 -0
  outer loop
   vertex -0.0468117 -0.0175687 0
   vertex -0.0468117 -0.0175687 -0.2
   vertex -0.0459764 -0.0196513 -0.2
  endloop
 endfacet
 facet normal -0.943883 -0.330279 0
  outer loop
   vertex -0.0468117 -0.0175687 0
   vertex -0.0475528 -0.0154508 0
   vertex -0.0475528 -0.0154508 -0.2
  endloop
 endfacet
 facet normal -0.928115 -0.372295 -0
  outer loop
   vertex -0.0459764 -0.0196513 0
   vertex -0.0468117 -0.0175687 0
   vertex -0.0459764 -0.0196513 -0.2
  endloop
 endfacet
 facet normal -0.910478 -0.413558 0
  outer loop
   vertex -0.0450484 -0.0216942 0
   vertex -0.0459764 -0.0196513 0
   vertex -0.0459764 -0.0196513 -0.2
  endloop
 endfacet
 facet normal -0.910478 -0.413558 -0
  outer loop
   vertex -0.0450484 -0.0216942 0
   vertex -0.0459764 -0.0196513 -0.2
   vertex -0.0450484 -0.0216942 -0.2
  endloop
 endfacet
 facet normal -0.891007 -0.45399 0
  outer loop
   vertex -0.0440298 -0.0236934 0
   vertex -0.0450484 -0.0216942 0
   vertex -0.0450484 -0.0216942 -0.2
  endloop
 endfacet
 facet normal -0.891007 -0.45399 -0
  outer loop
   vertex -0.0440298 -0.0236934 0
   vertex -0.0450484 -0.0216942 -0.2
   vertex -0.0440298 -0.0236934 -0.2
  endloop
 endfacet
 facet normal -0.869741 -0.493509 0
  outer loop
   vertex -0.0429224 -0.025645 0
   vertex -0.0440298 -0.0236934 0
   vertex -0.0440298 -0.0236934 -0.2
  endloop
 endfacet
 facet normal -0.869741 -0.493509 -0
  outer loop
   vertex -0.0429224 -0.025645 0
   vertex -0.0440298 -0.0236934 -0.2
   vertex -0.0429224 -0.025645 -0.2
  endloop
 endfacet
 facet normal -0.846725 -0.532032 0
  outer loop
   vertex -0.0417287 -0.0275448 0
   vertex -0.0429224 -0.025645 0
   vertex -0.0429224 -0.025645 -0.2
  endloop
 endfacet
 facet normal -0.846725 -0.532032 -0
  outer loop
   vertex -0.0417287 -0.0275448 0
   vertex -0.0429224 -0.025645 -0.2
   vertex -0.0417287 -0.0275448 -0.2
  endloop
 endfacet
 facet normal -0.822002 -0.569484 0
  outer loop
   vertex -0.0404509 -0.0293893 0
   vertex -0.0417287 -0.0275448 0
   vertex -0.0417287 -0.0275448 -0.2
  endloop
 endfacet
 facet normal -0.822002 -0.569484 -0
  outer loop
   vertex -0.0404509 -0.0293893 0
   vertex -0.0417287 -0.0275448 -0.2
   vertex -0.0404509 -0.0293893 -0.2
  endloop
 endfacet
 facet normal -0.795624 -0.60579 -0
  outer loop
   vertex -0.0404509 -0.0293893 0
   vertex -0.0404509 -0.0293893 -0.2
   vertex -0.0390916 -0.0311745 -0.2
  endloop
 endfacet
 facet normal -0.795624 -0.60579 -0
  outer loop
   vertex -0.0390916 -0.0311745 0
   vertex -0.0404509 -0.0293893 0
   vertex -0.0390916 -0.0311745 -0.2
  endloop
 endfacet
 facet normal -0.767644 -0.640877 0
  outer loop
   vertex -0.0376536 -0.0328969 0
   vertex -0.0390916 -0.0311745 0
   vertex -0.0390916 -0.0311745 -0.2
  endloop
 endfacet
 facet normal -0.767644 -0.640877 -0
  outer loop
   vertex -0.0376536 -0.0328969 0
   vertex -0.0390916 -0.0311745 -0.2
   vertex -0.0376536 -0.0328969 -0.2
  endloop
 endfacet
 facet normal -0.738119 -0.67467 -0
  outer loop
   vertex -0.0361397 -0.0345531 0
   vertex -0.0376536 -0.0328969 -0.2
   vertex -0.0361397 -0.0345531 -0.2
  endloop
 endfacet
 facet normal -0.738119 -0.67467 0
  outer loop
   vertex -0.0361397 -0.0345531 0
   vertex -0.0376536 -0.0328969 0
   vertex -0.0376536 -0.0328969 -0.2
  endloop
 endfacet
 facet normal -0.707107 -0.707107 -0
  outer loop
   vertex -0.0345531 -0.0361397 0
   vertex -0.0361397 -0.0345531 -0.2
   vertex -0.0345531 -0.0361397 -0.2
  endloop
 endfacet
 facet normal -0.707107 -0.707107 0
  outer loop
   vertex -0.0345531 -0.0361397 0
   vertex -0.0361397 -0.0345531 0
   vertex -0.0361397 -0.0345531 -0.2
  endloop
 endfacet
 facet normal -0.67467 -0.738119 -0
  outer loop
   vertex -0.0328969 -0.0376536 0
   vertex -0.0345531 -0.0361397 -0.2
   vertex -0.0328969 -0.0376536 -0.2
  endloop
 endfacet
 facet normal -0.67467 -0.738119 0
  outer loop
   vertex -0.0328969 -0.0376536 0
   vertex -0.0345531 -0.0361397 0
   vertex -0.0345531 -0.0361397 -0.2
  endloop
 endfacet
 facet normal -0.640877 -0.767644 -0
  outer loop
   vertex -0.0311745 -0.0390916 0
   vertex -0.0328969 -0.0376536 -0.2
   vertex -0.0311745 -0.0390916 -0.2
  endloop
 endfacet
 facet normal -0.640877 -0.767644 0
  outer loop
   vertex -0.0311745 -0.0390916 0
   vertex -0.0328969 -0.0376536 0
   vertex -0.0328969 -0.0376536 -0.2
  endloop
 endfacet
 facet normal -0.60579 -0.795624 -0
  outer loop
   vertex -0.0293893 -0.0404509 0
   vertex -0.0311745 -0.0390916 -0.2
   vertex -0.0293893 -0.0404509 -0.2
  endloop
 endfacet
 facet normal -0.569484 -0.822002 -0
  outer loop
   vertex -0.0293893 -0.0404509 0
   vertex -0.0293893 -0.0404509 -0.2
   vertex -0.0275448 -0.0417287 -0.2
  endloop
 endfacet
 facet normal -0.60579 -0.795624 0
  outer loop
   vertex -0.0293893 -0.0404509 0
   vertex -0.0311745 -0.0390916 0
   vertex -0.0311745 -0.0390916 -0.2
  endloop
 endfacet
 facet normal -0.569484 -0.822002 -0
  outer loop
   vertex -0.0275448 -0.0417287 0
   vertex -0.0293893 -0.0404509 0
   vertex -0.0275448 -0.0417287 -0.2
  endloop
 endfacet
 facet normal -0.532032 -0.846725 -0
  outer loop
   vertex -0.025645 -0.0429224 0
   vertex -0.0275448 -0.0417287 -0.2
   vertex -0.025645 -0.0429224 -0.2
  endloop
 endfacet
endsolid zone0
